<?xml version="1.0" encoding="UTF-8" standalone="no"?>
<!DOCTYPE svg PUBLIC "-//W3C//DTD SVG 1.1//EN"
 "http://www.w3.org/Graphics/SVG/1.1/DTD/svg11.dtd">
<!-- Generated by graphviz version 2.43.0 (0)
 -->
<!-- Title: AST Pages: 1 -->
<svg width="3309pt" height="764pt"
 viewBox="0.00 0.00 3308.50 764.00" xmlns="http://www.w3.org/2000/svg" xmlns:xlink="http://www.w3.org/1999/xlink">
<g id="graph0" class="graph" transform="scale(1 1) rotate(0) translate(4 760)">
<title>AST</title>
<polygon fill="#ffffff" stroke="transparent" points="-4,4 -4,-760 3304.5,-760 3304.5,4 -4,4"/>
<!-- node0x6488bd622170 -->
<g id="node1" class="node">
<title>node0x6488bd622170</title>
<path fill="#ffffff" stroke="#a0aec0" d="M1668.5,-756C1668.5,-756 1603.5,-756 1603.5,-756 1597.5,-756 1591.5,-750 1591.5,-744 1591.5,-744 1591.5,-732 1591.5,-732 1591.5,-726 1597.5,-720 1603.5,-720 1603.5,-720 1668.5,-720 1668.5,-720 1674.5,-720 1680.5,-726 1680.5,-732 1680.5,-732 1680.5,-744 1680.5,-744 1680.5,-750 1674.5,-756 1668.5,-756"/>
<text text-anchor="middle" x="1636" y="-735.2" font-family="Helvetica,sans-Serif" font-size="11.00" fill="#111111">Instrucciones</text>
</g>
<!-- node0x6488bd622110 -->
<g id="node2" class="node">
<title>node0x6488bd622110</title>
<path fill="#ffffff" stroke="#a0aec0" d="M1668.5,-666C1668.5,-666 1603.5,-666 1603.5,-666 1597.5,-666 1591.5,-660 1591.5,-654 1591.5,-654 1591.5,-642 1591.5,-642 1591.5,-636 1597.5,-630 1603.5,-630 1603.5,-630 1668.5,-630 1668.5,-630 1674.5,-630 1680.5,-636 1680.5,-642 1680.5,-642 1680.5,-654 1680.5,-654 1680.5,-660 1674.5,-666 1668.5,-666"/>
<text text-anchor="middle" x="1636" y="-645.2" font-family="Helvetica,sans-Serif" font-size="11.00" fill="#111111">MainFunction</text>
</g>
<!-- node0x6488bd622170&#45;&gt;node0x6488bd622110 -->
<g id="edge1" class="edge">
<title>node0x6488bd622170&#45;&gt;node0x6488bd622110</title>
<path fill="none" stroke="#6b7280" d="M1636,-719.61C1636,-706.39 1636,-688.03 1636,-673.35"/>
<polygon fill="#6b7280" stroke="#6b7280" points="1636,-666.05 1639.15,-673.05 1636,-669.55 1636,-673.05 1636,-673.05 1636,-673.05 1636,-669.55 1632.85,-673.05 1636,-666.05 1636,-666.05"/>
</g>
<!-- node0x6488bd6220b0 -->
<g id="node3" class="node">
<title>node0x6488bd6220b0</title>
<path fill="#ffffff" stroke="#a0aec0" d="M1651,-576C1651,-576 1621,-576 1621,-576 1615,-576 1609,-570 1609,-564 1609,-564 1609,-552 1609,-552 1609,-546 1615,-540 1621,-540 1621,-540 1651,-540 1651,-540 1657,-540 1663,-546 1663,-552 1663,-552 1663,-564 1663,-564 1663,-570 1657,-576 1651,-576"/>
<text text-anchor="middle" x="1636" y="-555.2" font-family="Helvetica,sans-Serif" font-size="11.00" fill="#111111">Bloque</text>
</g>
<!-- node0x6488bd622110&#45;&gt;node0x6488bd6220b0 -->
<g id="edge2" class="edge">
<title>node0x6488bd622110&#45;&gt;node0x6488bd6220b0</title>
<path fill="none" stroke="#6b7280" d="M1636,-629.61C1636,-616.39 1636,-598.03 1636,-583.35"/>
<polygon fill="#6b7280" stroke="#6b7280" points="1636,-576.05 1639.15,-583.05 1636,-579.55 1636,-583.05 1636,-583.05 1636,-583.05 1636,-579.55 1632.85,-583.05 1636,-576.05 1636,-576.05"/>
</g>
<!-- node0x6488bd642cc0 -->
<g id="node4" class="node">
<title>node0x6488bd642cc0</title>
<path fill="#ffffff" stroke="#a0aec0" d="M1668.5,-486C1668.5,-486 1603.5,-486 1603.5,-486 1597.5,-486 1591.5,-480 1591.5,-474 1591.5,-474 1591.5,-462 1591.5,-462 1591.5,-456 1597.5,-450 1603.5,-450 1603.5,-450 1668.5,-450 1668.5,-450 1674.5,-450 1680.5,-456 1680.5,-462 1680.5,-462 1680.5,-474 1680.5,-474 1680.5,-480 1674.5,-486 1668.5,-486"/>
<text text-anchor="middle" x="1636" y="-465.2" font-family="Helvetica,sans-Serif" font-size="11.00" fill="#111111">Instrucciones</text>
</g>
<!-- node0x6488bd6220b0&#45;&gt;node0x6488bd642cc0 -->
<g id="edge3" class="edge">
<title>node0x6488bd6220b0&#45;&gt;node0x6488bd642cc0</title>
<path fill="none" stroke="#6b7280" d="M1636,-539.61C1636,-526.39 1636,-508.03 1636,-493.35"/>
<polygon fill="#6b7280" stroke="#6b7280" points="1636,-486.05 1639.15,-493.05 1636,-489.55 1636,-493.05 1636,-493.05 1636,-493.05 1636,-489.55 1632.85,-493.05 1636,-486.05 1636,-486.05"/>
</g>
<!-- node0x6488bd630e00 -->
<g id="node5" class="node">
<title>node0x6488bd630e00</title>
<path fill="#ffffff" stroke="#a0aec0" d="M126,-396C126,-396 96,-396 96,-396 90,-396 84,-390 84,-384 84,-384 84,-372 84,-372 84,-366 90,-360 96,-360 96,-360 126,-360 126,-360 132,-360 138,-366 138,-372 138,-372 138,-384 138,-384 138,-390 132,-396 126,-396"/>
<text text-anchor="middle" x="111" y="-375.2" font-family="Helvetica,sans-Serif" font-size="11.00" fill="#111111">Print</text>
</g>
<!-- node0x6488bd642cc0&#45;&gt;node0x6488bd630e00 -->
<g id="edge4" class="edge">
<title>node0x6488bd642cc0&#45;&gt;node0x6488bd630e00</title>
<path fill="none" stroke="#6b7280" d="M1591.19,-464.41C1364.36,-451.32 345.78,-392.55 145.31,-380.98"/>
<polygon fill="#6b7280" stroke="#6b7280" points="138.26,-380.57 145.43,-377.83 141.75,-380.77 145.25,-380.98 145.25,-380.98 145.25,-380.98 141.75,-380.77 145.07,-384.12 138.26,-380.57 138.26,-380.57"/>
</g>
<!-- node0x6488bd61a3f0 -->
<g id="node8" class="node">
<title>node0x6488bd61a3f0</title>
<path fill="#ffffff" stroke="#a0aec0" d="M251,-396C251,-396 221,-396 221,-396 215,-396 209,-390 209,-384 209,-384 209,-372 209,-372 209,-366 215,-360 221,-360 221,-360 251,-360 251,-360 257,-360 263,-366 263,-372 263,-372 263,-384 263,-384 263,-390 257,-396 251,-396"/>
<text text-anchor="middle" x="236" y="-375.2" font-family="Helvetica,sans-Serif" font-size="11.00" fill="#111111">Print</text>
</g>
<!-- node0x6488bd642cc0&#45;&gt;node0x6488bd61a3f0 -->
<g id="edge7" class="edge">
<title>node0x6488bd642cc0&#45;&gt;node0x6488bd61a3f0</title>
<path fill="none" stroke="#6b7280" d="M1591.4,-464.2C1377.61,-450.76 460.26,-393.1 270.45,-381.17"/>
<polygon fill="#6b7280" stroke="#6b7280" points="263.24,-380.71 270.42,-378.01 266.73,-380.93 270.23,-381.15 270.23,-381.15 270.23,-381.15 266.73,-380.93 270.03,-384.3 263.24,-380.71 263.24,-380.71"/>
</g>
<!-- node0x6488bd61a630 -->
<g id="node11" class="node">
<title>node0x6488bd61a630</title>
<path fill="#ffffff" stroke="#a0aec0" d="M404,-396C404,-396 374,-396 374,-396 368,-396 362,-390 362,-384 362,-384 362,-372 362,-372 362,-366 368,-360 374,-360 374,-360 404,-360 404,-360 410,-360 416,-366 416,-372 416,-372 416,-384 416,-384 416,-390 410,-396 404,-396"/>
<text text-anchor="middle" x="389" y="-375.2" font-family="Helvetica,sans-Serif" font-size="11.00" fill="#111111">Print</text>
</g>
<!-- node0x6488bd642cc0&#45;&gt;node0x6488bd61a630 -->
<g id="edge10" class="edge">
<title>node0x6488bd642cc0&#45;&gt;node0x6488bd61a630</title>
<path fill="none" stroke="#6b7280" d="M1591.25,-463.84C1393.33,-449.88 598.68,-393.8 423.35,-381.42"/>
<polygon fill="#6b7280" stroke="#6b7280" points="416.18,-380.92 423.38,-378.27 419.67,-381.16 423.16,-381.41 423.16,-381.41 423.16,-381.41 419.67,-381.16 422.94,-384.55 416.18,-380.92 416.18,-380.92"/>
</g>
<!-- node0x6488bd6153a0 -->
<g id="node15" class="node">
<title>node0x6488bd6153a0</title>
<path fill="#ffffff" stroke="#a0aec0" d="M557,-396C557,-396 527,-396 527,-396 521,-396 515,-390 515,-384 515,-384 515,-372 515,-372 515,-366 521,-360 527,-360 527,-360 557,-360 557,-360 563,-360 569,-366 569,-372 569,-372 569,-384 569,-384 569,-390 563,-396 557,-396"/>
<text text-anchor="middle" x="542" y="-375.2" font-family="Helvetica,sans-Serif" font-size="11.00" fill="#111111">Print</text>
</g>
<!-- node0x6488bd642cc0&#45;&gt;node0x6488bd6153a0 -->
<g id="edge14" class="edge">
<title>node0x6488bd642cc0&#45;&gt;node0x6488bd6153a0</title>
<path fill="none" stroke="#6b7280" d="M1591.42,-463.41C1411.06,-448.91 737.5,-394.73 576.65,-381.79"/>
<polygon fill="#6b7280" stroke="#6b7280" points="569.38,-381.2 576.61,-378.62 572.87,-381.48 576.36,-381.76 576.36,-381.76 576.36,-381.76 572.87,-381.48 576.11,-384.9 569.38,-381.2 569.38,-381.2"/>
</g>
<!-- node0x6488bd4e3e50 -->
<g id="node18" class="node">
<title>node0x6488bd4e3e50</title>
<path fill="#ffffff" stroke="#a0aec0" d="M710,-396C710,-396 680,-396 680,-396 674,-396 668,-390 668,-384 668,-384 668,-372 668,-372 668,-366 674,-360 680,-360 680,-360 710,-360 710,-360 716,-360 722,-366 722,-372 722,-372 722,-384 722,-384 722,-390 716,-396 710,-396"/>
<text text-anchor="middle" x="695" y="-375.2" font-family="Helvetica,sans-Serif" font-size="11.00" fill="#111111">Print</text>
</g>
<!-- node0x6488bd642cc0&#45;&gt;node0x6488bd4e3e50 -->
<g id="edge17" class="edge">
<title>node0x6488bd642cc0&#45;&gt;node0x6488bd4e3e50</title>
<path fill="none" stroke="#6b7280" d="M1591.25,-462.81C1429.06,-447.65 874.04,-395.74 729.59,-382.24"/>
<polygon fill="#6b7280" stroke="#6b7280" points="722.24,-381.55 729.5,-379.06 725.72,-381.87 729.21,-382.2 729.21,-382.2 729.21,-382.2 725.72,-381.87 728.91,-385.34 722.24,-381.55 722.24,-381.55"/>
</g>
<!-- node0x6488bd5ec410 -->
<g id="node21" class="node">
<title>node0x6488bd5ec410</title>
<path fill="#ffffff" stroke="#a0aec0" d="M863,-396C863,-396 833,-396 833,-396 827,-396 821,-390 821,-384 821,-384 821,-372 821,-372 821,-366 827,-360 833,-360 833,-360 863,-360 863,-360 869,-360 875,-366 875,-372 875,-372 875,-384 875,-384 875,-390 869,-396 863,-396"/>
<text text-anchor="middle" x="848" y="-375.2" font-family="Helvetica,sans-Serif" font-size="11.00" fill="#111111">Print</text>
</g>
<!-- node0x6488bd642cc0&#45;&gt;node0x6488bd5ec410 -->
<g id="edge20" class="edge">
<title>node0x6488bd642cc0&#45;&gt;node0x6488bd5ec410</title>
<path fill="none" stroke="#6b7280" d="M1591.38,-462.02C1449.16,-446.14 1008.56,-396.93 882.2,-382.82"/>
<polygon fill="#6b7280" stroke="#6b7280" points="875.02,-382.02 882.33,-379.66 878.5,-382.41 881.98,-382.79 881.98,-382.79 881.98,-382.79 878.5,-382.41 881.63,-385.93 875.02,-382.02 875.02,-382.02"/>
</g>
<!-- node0x6488bd3fa280 -->
<g id="node24" class="node">
<title>node0x6488bd3fa280</title>
<path fill="#ffffff" stroke="#a0aec0" d="M1016,-396C1016,-396 986,-396 986,-396 980,-396 974,-390 974,-384 974,-384 974,-372 974,-372 974,-366 980,-360 986,-360 986,-360 1016,-360 1016,-360 1022,-360 1028,-366 1028,-372 1028,-372 1028,-384 1028,-384 1028,-390 1022,-396 1016,-396"/>
<text text-anchor="middle" x="1001" y="-375.2" font-family="Helvetica,sans-Serif" font-size="11.00" fill="#111111">Print</text>
</g>
<!-- node0x6488bd642cc0&#45;&gt;node0x6488bd3fa280 -->
<g id="edge23" class="edge">
<title>node0x6488bd642cc0&#45;&gt;node0x6488bd3fa280</title>
<path fill="none" stroke="#6b7280" d="M1591.35,-460.81C1471.03,-444.14 1141.94,-398.53 1035.04,-383.72"/>
<polygon fill="#6b7280" stroke="#6b7280" points="1028.03,-382.75 1035.39,-380.59 1031.49,-383.23 1034.96,-383.71 1034.96,-383.71 1034.96,-383.71 1031.49,-383.23 1034.53,-386.83 1028.03,-382.75 1028.03,-382.75"/>
</g>
<!-- node0x6488bd62e570 -->
<g id="node27" class="node">
<title>node0x6488bd62e570</title>
<path fill="#ffffff" stroke="#a0aec0" d="M1169,-396C1169,-396 1139,-396 1139,-396 1133,-396 1127,-390 1127,-384 1127,-384 1127,-372 1127,-372 1127,-366 1133,-360 1139,-360 1139,-360 1169,-360 1169,-360 1175,-360 1181,-366 1181,-372 1181,-372 1181,-384 1181,-384 1181,-390 1175,-396 1169,-396"/>
<text text-anchor="middle" x="1154" y="-375.2" font-family="Helvetica,sans-Serif" font-size="11.00" fill="#111111">Print</text>
</g>
<!-- node0x6488bd642cc0&#45;&gt;node0x6488bd62e570 -->
<g id="edge26" class="edge">
<title>node0x6488bd642cc0&#45;&gt;node0x6488bd62e570</title>
<path fill="none" stroke="#6b7280" d="M1591.09,-458.8C1495.48,-441.35 1273.63,-400.84 1188.3,-385.26"/>
<polygon fill="#6b7280" stroke="#6b7280" points="1181.19,-383.96 1188.64,-382.12 1184.63,-384.59 1188.08,-385.22 1188.08,-385.22 1188.08,-385.22 1184.63,-384.59 1187.51,-388.32 1181.19,-383.96 1181.19,-383.96"/>
</g>
<!-- node0x6488bd5ef8b0 -->
<g id="node30" class="node">
<title>node0x6488bd5ef8b0</title>
<path fill="#ffffff" stroke="#a0aec0" d="M1322,-396C1322,-396 1292,-396 1292,-396 1286,-396 1280,-390 1280,-384 1280,-384 1280,-372 1280,-372 1280,-366 1286,-360 1292,-360 1292,-360 1322,-360 1322,-360 1328,-360 1334,-366 1334,-372 1334,-372 1334,-384 1334,-384 1334,-390 1328,-396 1322,-396"/>
<text text-anchor="middle" x="1307" y="-375.2" font-family="Helvetica,sans-Serif" font-size="11.00" fill="#111111">Print</text>
</g>
<!-- node0x6488bd642cc0&#45;&gt;node0x6488bd5ef8b0 -->
<g id="edge29" class="edge">
<title>node0x6488bd642cc0&#45;&gt;node0x6488bd5ef8b0</title>
<path fill="none" stroke="#6b7280" d="M1591.29,-455.04C1524.77,-437.25 1401.17,-404.19 1341.29,-388.17"/>
<polygon fill="#6b7280" stroke="#6b7280" points="1334.31,-386.3 1341.89,-385.07 1337.69,-387.21 1341.07,-388.11 1341.07,-388.11 1341.07,-388.11 1337.69,-387.21 1340.26,-391.16 1334.31,-386.3 1334.31,-386.3"/>
</g>
<!-- node0x6488bd5f5410 -->
<g id="node33" class="node">
<title>node0x6488bd5f5410</title>
<path fill="#ffffff" stroke="#a0aec0" d="M1475,-396C1475,-396 1445,-396 1445,-396 1439,-396 1433,-390 1433,-384 1433,-384 1433,-372 1433,-372 1433,-366 1439,-360 1445,-360 1445,-360 1475,-360 1475,-360 1481,-360 1487,-366 1487,-372 1487,-372 1487,-384 1487,-384 1487,-390 1481,-396 1475,-396"/>
<text text-anchor="middle" x="1460" y="-375.2" font-family="Helvetica,sans-Serif" font-size="11.00" fill="#111111">Print</text>
</g>
<!-- node0x6488bd642cc0&#45;&gt;node0x6488bd5f5410 -->
<g id="edge32" class="edge">
<title>node0x6488bd642cc0&#45;&gt;node0x6488bd5f5410</title>
<path fill="none" stroke="#6b7280" d="M1601.65,-449.82C1570.36,-434.18 1524.44,-411.22 1493.44,-395.72"/>
<polygon fill="#6b7280" stroke="#6b7280" points="1487.07,-392.53 1494.74,-392.85 1490.2,-394.1 1493.33,-395.66 1493.33,-395.66 1493.33,-395.66 1490.2,-394.1 1491.92,-398.48 1487.07,-392.53 1487.07,-392.53"/>
</g>
<!-- node0x6488bd568d40 -->
<g id="node36" class="node">
<title>node0x6488bd568d40</title>
<path fill="#ffffff" stroke="#a0aec0" d="M1603,-396C1603,-396 1573,-396 1573,-396 1567,-396 1561,-390 1561,-384 1561,-384 1561,-372 1561,-372 1561,-366 1567,-360 1573,-360 1573,-360 1603,-360 1603,-360 1609,-360 1615,-366 1615,-372 1615,-372 1615,-384 1615,-384 1615,-390 1609,-396 1603,-396"/>
<text text-anchor="middle" x="1588" y="-375.2" font-family="Helvetica,sans-Serif" font-size="11.00" fill="#111111">Print</text>
</g>
<!-- node0x6488bd642cc0&#45;&gt;node0x6488bd568d40 -->
<g id="edge35" class="edge">
<title>node0x6488bd642cc0&#45;&gt;node0x6488bd568d40</title>
<path fill="none" stroke="#6b7280" d="M1626.52,-449.61C1619.17,-436.15 1608.92,-417.36 1600.84,-402.54"/>
<polygon fill="#6b7280" stroke="#6b7280" points="1597.3,-396.05 1603.42,-400.69 1598.98,-399.12 1600.65,-402.2 1600.65,-402.2 1600.65,-402.2 1598.98,-399.12 1597.89,-403.7 1597.3,-396.05 1597.3,-396.05"/>
</g>
<!-- node0x6488bd289080 -->
<g id="node39" class="node">
<title>node0x6488bd289080</title>
<path fill="#ffffff" stroke="#a0aec0" d="M1726,-396C1726,-396 1696,-396 1696,-396 1690,-396 1684,-390 1684,-384 1684,-384 1684,-372 1684,-372 1684,-366 1690,-360 1696,-360 1696,-360 1726,-360 1726,-360 1732,-360 1738,-366 1738,-372 1738,-372 1738,-384 1738,-384 1738,-390 1732,-396 1726,-396"/>
<text text-anchor="middle" x="1711" y="-375.2" font-family="Helvetica,sans-Serif" font-size="11.00" fill="#111111">Print</text>
</g>
<!-- node0x6488bd642cc0&#45;&gt;node0x6488bd289080 -->
<g id="edge38" class="edge">
<title>node0x6488bd642cc0&#45;&gt;node0x6488bd289080</title>
<path fill="none" stroke="#6b7280" d="M1650.82,-449.61C1662.5,-435.91 1678.89,-416.68 1691.61,-401.75"/>
<polygon fill="#6b7280" stroke="#6b7280" points="1696.47,-396.05 1694.33,-403.42 1694.2,-398.71 1691.93,-401.38 1691.93,-401.38 1691.93,-401.38 1694.2,-398.71 1689.53,-399.33 1696.47,-396.05 1696.47,-396.05"/>
</g>
<!-- node0x6488bd641d90 -->
<g id="node42" class="node">
<title>node0x6488bd641d90</title>
<path fill="#eef6ff" stroke="#2b6cb0" stroke-width="1.2" d="M1863.5,-396C1863.5,-396 1806.5,-396 1806.5,-396 1800.5,-396 1794.5,-390 1794.5,-384 1794.5,-384 1794.5,-372 1794.5,-372 1794.5,-366 1800.5,-360 1806.5,-360 1806.5,-360 1863.5,-360 1863.5,-360 1869.5,-360 1875.5,-366 1875.5,-372 1875.5,-372 1875.5,-384 1875.5,-384 1875.5,-390 1869.5,-396 1863.5,-396"/>
<text text-anchor="middle" x="1835" y="-381.2" font-family="Helvetica,sans-Serif" font-size="11.00" fill="#111111">Declaracion</text>
<text text-anchor="middle" x="1835" y="-369.2" font-family="Helvetica,sans-Serif" font-size="11.00" fill="#111111">(int base)</text>
</g>
<!-- node0x6488bd642cc0&#45;&gt;node0x6488bd641d90 -->
<g id="edge41" class="edge">
<title>node0x6488bd642cc0&#45;&gt;node0x6488bd641d90</title>
<path fill="none" stroke="#6b7280" d="M1674.84,-449.82C1707.71,-435.29 1754.87,-414.43 1789.5,-399.12"/>
<polygon fill="#6b7280" stroke="#6b7280" points="1796.26,-396.13 1791.13,-401.84 1793.06,-397.55 1789.85,-398.96 1789.85,-398.96 1789.85,-398.96 1793.06,-397.55 1788.58,-396.08 1796.26,-396.13 1796.26,-396.13"/>
</g>
<!-- node0x6488bd5fe340 -->
<g id="node44" class="node">
<title>node0x6488bd5fe340</title>
<path fill="#eef6ff" stroke="#2b6cb0" stroke-width="1.2" d="M2009.5,-396C2009.5,-396 1936.5,-396 1936.5,-396 1930.5,-396 1924.5,-390 1924.5,-384 1924.5,-384 1924.5,-372 1924.5,-372 1924.5,-366 1930.5,-360 1936.5,-360 1936.5,-360 2009.5,-360 2009.5,-360 2015.5,-360 2021.5,-366 2021.5,-372 2021.5,-372 2021.5,-384 2021.5,-384 2021.5,-390 2015.5,-396 2009.5,-396"/>
<text text-anchor="middle" x="1973" y="-381.2" font-family="Helvetica,sans-Serif" font-size="11.00" fill="#111111">Declaracion</text>
<text text-anchor="middle" x="1973" y="-369.2" font-family="Helvetica,sans-Serif" font-size="11.00" fill="#111111">(float flotante)</text>
</g>
<!-- node0x6488bd642cc0&#45;&gt;node0x6488bd5fe340 -->
<g id="edge43" class="edge">
<title>node0x6488bd642cc0&#45;&gt;node0x6488bd5fe340</title>
<path fill="none" stroke="#6b7280" d="M1680.75,-455.31C1741.73,-439.39 1850.91,-410.88 1917.17,-393.58"/>
<polygon fill="#6b7280" stroke="#6b7280" points="1924.24,-391.73 1918.26,-396.55 1920.85,-392.62 1917.46,-393.5 1917.46,-393.5 1917.46,-393.5 1920.85,-392.62 1916.67,-390.45 1924.24,-391.73 1924.24,-391.73"/>
</g>
<!-- node0x6488bd642ee0 -->
<g id="node46" class="node">
<title>node0x6488bd642ee0</title>
<path fill="#ffffff" stroke="#a0aec0" d="M2116,-396C2116,-396 2086,-396 2086,-396 2080,-396 2074,-390 2074,-384 2074,-384 2074,-372 2074,-372 2074,-366 2080,-360 2086,-360 2086,-360 2116,-360 2116,-360 2122,-360 2128,-366 2128,-372 2128,-372 2128,-384 2128,-384 2128,-390 2122,-396 2116,-396"/>
<text text-anchor="middle" x="2101" y="-375.2" font-family="Helvetica,sans-Serif" font-size="11.00" fill="#111111">Print</text>
</g>
<!-- node0x6488bd642cc0&#45;&gt;node0x6488bd642ee0 -->
<g id="edge45" class="edge">
<title>node0x6488bd642cc0&#45;&gt;node0x6488bd642ee0</title>
<path fill="none" stroke="#6b7280" d="M1680.59,-458.56C1773.04,-441.07 1983.91,-401.16 2066.71,-385.49"/>
<polygon fill="#6b7280" stroke="#6b7280" points="2073.85,-384.14 2067.56,-388.53 2070.41,-384.79 2066.98,-385.44 2066.98,-385.44 2066.98,-385.44 2070.41,-384.79 2066.39,-382.34 2073.85,-384.14 2073.85,-384.14"/>
</g>
<!-- node0x6488bd6229e0 -->
<g id="node50" class="node">
<title>node0x6488bd6229e0</title>
<path fill="#ffffff" stroke="#a0aec0" d="M2246,-396C2246,-396 2216,-396 2216,-396 2210,-396 2204,-390 2204,-384 2204,-384 2204,-372 2204,-372 2204,-366 2210,-360 2216,-360 2216,-360 2246,-360 2246,-360 2252,-360 2258,-366 2258,-372 2258,-372 2258,-384 2258,-384 2258,-390 2252,-396 2246,-396"/>
<text text-anchor="middle" x="2231" y="-375.2" font-family="Helvetica,sans-Serif" font-size="11.00" fill="#111111">Print</text>
</g>
<!-- node0x6488bd642cc0&#45;&gt;node0x6488bd6229e0 -->
<g id="edge49" class="edge">
<title>node0x6488bd642cc0&#45;&gt;node0x6488bd6229e0</title>
<path fill="none" stroke="#6b7280" d="M1680.72,-460.39C1794.87,-443.5 2095.16,-399.09 2196.8,-384.06"/>
<polygon fill="#6b7280" stroke="#6b7280" points="2203.77,-383.03 2197.31,-387.17 2200.31,-383.54 2196.85,-384.05 2196.85,-384.05 2196.85,-384.05 2200.31,-383.54 2196.39,-380.93 2203.77,-383.03 2203.77,-383.03"/>
</g>
<!-- node0x6488bd5fe7b0 -->
<g id="node55" class="node">
<title>node0x6488bd5fe7b0</title>
<path fill="#ffffff" stroke="#a0aec0" d="M2387,-396C2387,-396 2357,-396 2357,-396 2351,-396 2345,-390 2345,-384 2345,-384 2345,-372 2345,-372 2345,-366 2351,-360 2357,-360 2357,-360 2387,-360 2387,-360 2393,-360 2399,-366 2399,-372 2399,-372 2399,-384 2399,-384 2399,-390 2393,-396 2387,-396"/>
<text text-anchor="middle" x="2372" y="-375.2" font-family="Helvetica,sans-Serif" font-size="11.00" fill="#111111">Print</text>
</g>
<!-- node0x6488bd642cc0&#45;&gt;node0x6488bd5fe7b0 -->
<g id="edge54" class="edge">
<title>node0x6488bd642cc0&#45;&gt;node0x6488bd5fe7b0</title>
<path fill="none" stroke="#6b7280" d="M1680.66,-461.66C1815.65,-445.52 2217.52,-397.47 2337.69,-383.1"/>
<polygon fill="#6b7280" stroke="#6b7280" points="2344.86,-382.24 2338.28,-386.2 2341.39,-382.66 2337.91,-383.08 2337.91,-383.08 2337.91,-383.08 2341.39,-382.66 2337.54,-379.95 2344.86,-382.24 2344.86,-382.24"/>
</g>
<!-- node0x6488bd5e8c30 -->
<g id="node60" class="node">
<title>node0x6488bd5e8c30</title>
<path fill="#ffffff" stroke="#a0aec0" d="M2534,-396C2534,-396 2504,-396 2504,-396 2498,-396 2492,-390 2492,-384 2492,-384 2492,-372 2492,-372 2492,-366 2498,-360 2504,-360 2504,-360 2534,-360 2534,-360 2540,-360 2546,-366 2546,-372 2546,-372 2546,-384 2546,-384 2546,-390 2540,-396 2534,-396"/>
<text text-anchor="middle" x="2519" y="-375.2" font-family="Helvetica,sans-Serif" font-size="11.00" fill="#111111">Print</text>
</g>
<!-- node0x6488bd642cc0&#45;&gt;node0x6488bd5e8c30 -->
<g id="edge59" class="edge">
<title>node0x6488bd642cc0&#45;&gt;node0x6488bd5e8c30</title>
<path fill="none" stroke="#6b7280" d="M1680.7,-462.55C1835.51,-447.12 2346.89,-396.15 2484.59,-382.43"/>
<polygon fill="#6b7280" stroke="#6b7280" points="2491.62,-381.73 2484.97,-385.56 2488.14,-382.08 2484.65,-382.42 2484.65,-382.42 2484.65,-382.42 2488.14,-382.08 2484.34,-379.29 2491.62,-381.73 2491.62,-381.73"/>
</g>
<!-- node0x6488bd5f4fc0 -->
<g id="node65" class="node">
<title>node0x6488bd5f4fc0</title>
<path fill="#ffffff" stroke="#a0aec0" d="M2684,-396C2684,-396 2654,-396 2654,-396 2648,-396 2642,-390 2642,-384 2642,-384 2642,-372 2642,-372 2642,-366 2648,-360 2654,-360 2654,-360 2684,-360 2684,-360 2690,-360 2696,-366 2696,-372 2696,-372 2696,-384 2696,-384 2696,-390 2690,-396 2684,-396"/>
<text text-anchor="middle" x="2669" y="-375.2" font-family="Helvetica,sans-Serif" font-size="11.00" fill="#111111">Print</text>
</g>
<!-- node0x6488bd642cc0&#45;&gt;node0x6488bd5f4fc0 -->
<g id="edge64" class="edge">
<title>node0x6488bd642cc0&#45;&gt;node0x6488bd5f4fc0</title>
<path fill="none" stroke="#6b7280" d="M1680.72,-463.19C1854.18,-448.41 2480.57,-395.05 2634.6,-381.93"/>
<polygon fill="#6b7280" stroke="#6b7280" points="2642,-381.3 2635.29,-385.03 2638.51,-381.6 2635.02,-381.89 2635.02,-381.89 2635.02,-381.89 2638.51,-381.6 2634.75,-378.76 2642,-381.3 2642,-381.3"/>
</g>
<!-- node0x6488bd23a6c0 -->
<g id="node70" class="node">
<title>node0x6488bd23a6c0</title>
<path fill="#ffffff" stroke="#a0aec0" d="M2836,-396C2836,-396 2806,-396 2806,-396 2800,-396 2794,-390 2794,-384 2794,-384 2794,-372 2794,-372 2794,-366 2800,-360 2806,-360 2806,-360 2836,-360 2836,-360 2842,-360 2848,-366 2848,-372 2848,-372 2848,-384 2848,-384 2848,-390 2842,-396 2836,-396"/>
<text text-anchor="middle" x="2821" y="-375.2" font-family="Helvetica,sans-Serif" font-size="11.00" fill="#111111">Print</text>
</g>
<!-- node0x6488bd642cc0&#45;&gt;node0x6488bd23a6c0 -->
<g id="edge69" class="edge">
<title>node0x6488bd642cc0&#45;&gt;node0x6488bd23a6c0</title>
<path fill="none" stroke="#6b7280" d="M1680.65,-463.68C1871.58,-449.51 2617.38,-394.12 2786.68,-381.55"/>
<polygon fill="#6b7280" stroke="#6b7280" points="2793.85,-381.02 2787.1,-384.68 2790.36,-381.28 2786.87,-381.53 2786.87,-381.53 2786.87,-381.53 2790.36,-381.28 2786.64,-378.39 2793.85,-381.02 2793.85,-381.02"/>
</g>
<!-- node0x6488bd5f0bd0 -->
<g id="node77" class="node">
<title>node0x6488bd5f0bd0</title>
<path fill="#ffffff" stroke="#a0aec0" d="M2988,-396C2988,-396 2958,-396 2958,-396 2952,-396 2946,-390 2946,-384 2946,-384 2946,-372 2946,-372 2946,-366 2952,-360 2958,-360 2958,-360 2988,-360 2988,-360 2994,-360 3000,-366 3000,-372 3000,-372 3000,-384 3000,-384 3000,-390 2994,-396 2988,-396"/>
<text text-anchor="middle" x="2973" y="-375.2" font-family="Helvetica,sans-Serif" font-size="11.00" fill="#111111">Print</text>
</g>
<!-- node0x6488bd642cc0&#45;&gt;node0x6488bd5f0bd0 -->
<g id="edge76" class="edge">
<title>node0x6488bd642cc0&#45;&gt;node0x6488bd5f0bd0</title>
<path fill="none" stroke="#6b7280" d="M1680.87,-464.05C1888.59,-450.37 2754.62,-393.37 2938.56,-381.27"/>
<polygon fill="#6b7280" stroke="#6b7280" points="2945.82,-380.79 2939.04,-384.39 2942.32,-381.02 2938.83,-381.25 2938.83,-381.25 2938.83,-381.25 2942.32,-381.02 2938.62,-378.11 2945.82,-380.79 2945.82,-380.79"/>
</g>
<!-- node0x6488bd544be0 -->
<g id="node83" class="node">
<title>node0x6488bd544be0</title>
<path fill="#ffffff" stroke="#a0aec0" d="M3141,-396C3141,-396 3111,-396 3111,-396 3105,-396 3099,-390 3099,-384 3099,-384 3099,-372 3099,-372 3099,-366 3105,-360 3111,-360 3111,-360 3141,-360 3141,-360 3147,-360 3153,-366 3153,-372 3153,-372 3153,-384 3153,-384 3153,-390 3147,-396 3141,-396"/>
<text text-anchor="middle" x="3126" y="-375.2" font-family="Helvetica,sans-Serif" font-size="11.00" fill="#111111">Print</text>
</g>
<!-- node0x6488bd642cc0&#45;&gt;node0x6488bd544be0 -->
<g id="edge82" class="edge">
<title>node0x6488bd642cc0&#45;&gt;node0x6488bd544be0</title>
<path fill="none" stroke="#6b7280" d="M1680.59,-464.37C1903.49,-451.2 2893.98,-392.7 3091.62,-381.03"/>
<polygon fill="#6b7280" stroke="#6b7280" points="3098.85,-380.6 3092.05,-384.16 3095.35,-380.81 3091.86,-381.02 3091.86,-381.02 3091.86,-381.02 3095.35,-380.81 3091.67,-377.87 3098.85,-380.6 3098.85,-380.6"/>
</g>
<!-- node0x6488bd46e390 -->
<g id="node6" class="node">
<title>node0x6488bd46e390</title>
<path fill="#ffffff" stroke="#a0aec0" d="M98,-306C98,-306 12,-306 12,-306 6,-306 0,-300 0,-294 0,-294 0,-282 0,-282 0,-276 6,-270 12,-270 12,-270 98,-270 98,-270 104,-270 110,-276 110,-282 110,-282 110,-294 110,-294 110,-300 104,-306 98,-306"/>
<text text-anchor="middle" x="55" y="-285.2" font-family="Helvetica,sans-Serif" font-size="11.00" fill="#111111">ListaExpresiones</text>
</g>
<!-- node0x6488bd630e00&#45;&gt;node0x6488bd46e390 -->
<g id="edge5" class="edge">
<title>node0x6488bd630e00&#45;&gt;node0x6488bd46e390</title>
<path fill="none" stroke="#6b7280" d="M99.94,-359.61C91.29,-346.03 79.19,-327.02 69.73,-312.14"/>
<polygon fill="#6b7280" stroke="#6b7280" points="65.85,-306.05 72.27,-310.26 67.73,-309 69.61,-311.96 69.61,-311.96 69.61,-311.96 67.73,-309 66.95,-313.65 65.85,-306.05 65.85,-306.05"/>
</g>
<!-- node0x6488bd5fe2f0 -->
<g id="node7" class="node">
<title>node0x6488bd5fe2f0</title>
<path fill="#fff9db" stroke="#b7791f" stroke-width="1.2" d="M75.5,-216C75.5,-216 34.5,-216 34.5,-216 28.5,-216 22.5,-210 22.5,-204 22.5,-204 22.5,-192 22.5,-192 22.5,-186 28.5,-180 34.5,-180 34.5,-180 75.5,-180 75.5,-180 81.5,-180 87.5,-186 87.5,-192 87.5,-192 87.5,-204 87.5,-204 87.5,-210 81.5,-216 75.5,-216"/>
<text text-anchor="middle" x="55" y="-201.2" font-family="Helvetica,sans-Serif" font-size="11.00" fill="#111111">Primitivo</text>
<text text-anchor="middle" x="55" y="-189.2" font-family="Helvetica,sans-Serif" font-size="11.00" fill="#111111">(0)</text>
</g>
<!-- node0x6488bd46e390&#45;&gt;node0x6488bd5fe2f0 -->
<g id="edge6" class="edge">
<title>node0x6488bd46e390&#45;&gt;node0x6488bd5fe2f0</title>
<path fill="none" stroke="#6b7280" d="M55,-269.61C55,-256.39 55,-238.03 55,-223.35"/>
<polygon fill="#6b7280" stroke="#6b7280" points="55,-216.05 58.15,-223.05 55,-219.55 55,-223.05 55,-223.05 55,-223.05 55,-219.55 51.85,-223.05 55,-216.05 55,-216.05"/>
</g>
<!-- node0x6488bd468b80 -->
<g id="node9" class="node">
<title>node0x6488bd468b80</title>
<path fill="#ffffff" stroke="#a0aec0" d="M251,-306C251,-306 165,-306 165,-306 159,-306 153,-300 153,-294 153,-294 153,-282 153,-282 153,-276 159,-270 165,-270 165,-270 251,-270 251,-270 257,-270 263,-276 263,-282 263,-282 263,-294 263,-294 263,-300 257,-306 251,-306"/>
<text text-anchor="middle" x="208" y="-285.2" font-family="Helvetica,sans-Serif" font-size="11.00" fill="#111111">ListaExpresiones</text>
</g>
<!-- node0x6488bd61a3f0&#45;&gt;node0x6488bd468b80 -->
<g id="edge8" class="edge">
<title>node0x6488bd61a3f0&#45;&gt;node0x6488bd468b80</title>
<path fill="none" stroke="#6b7280" d="M230.47,-359.61C226.22,-346.27 220.31,-327.69 215.62,-312.94"/>
<polygon fill="#6b7280" stroke="#6b7280" points="213.43,-306.05 218.55,-311.77 214.49,-309.39 215.55,-312.72 215.55,-312.72 215.55,-312.72 214.49,-309.39 212.55,-313.68 213.43,-306.05 213.43,-306.05"/>
</g>
<!-- node0x6488bd60afd0 -->
<g id="node10" class="node">
<title>node0x6488bd60afd0</title>
<path fill="#fff9db" stroke="#b7791f" stroke-width="1.2" d="M228.5,-216C228.5,-216 187.5,-216 187.5,-216 181.5,-216 175.5,-210 175.5,-204 175.5,-204 175.5,-192 175.5,-192 175.5,-186 181.5,-180 187.5,-180 187.5,-180 228.5,-180 228.5,-180 234.5,-180 240.5,-186 240.5,-192 240.5,-192 240.5,-204 240.5,-204 240.5,-210 234.5,-216 228.5,-216"/>
<text text-anchor="middle" x="208" y="-201.2" font-family="Helvetica,sans-Serif" font-size="11.00" fill="#111111">Primitivo</text>
<text text-anchor="middle" x="208" y="-189.2" font-family="Helvetica,sans-Serif" font-size="11.00" fill="#111111">(42)</text>
</g>
<!-- node0x6488bd468b80&#45;&gt;node0x6488bd60afd0 -->
<g id="edge9" class="edge">
<title>node0x6488bd468b80&#45;&gt;node0x6488bd60afd0</title>
<path fill="none" stroke="#6b7280" d="M208,-269.61C208,-256.39 208,-238.03 208,-223.35"/>
<polygon fill="#6b7280" stroke="#6b7280" points="208,-216.05 211.15,-223.05 208,-219.55 208,-223.05 208,-223.05 208,-223.05 208,-219.55 204.85,-223.05 208,-216.05 208,-216.05"/>
</g>
<!-- node0x6488bd3fa2e0 -->
<g id="node12" class="node">
<title>node0x6488bd3fa2e0</title>
<path fill="#ffffff" stroke="#a0aec0" d="M404,-306C404,-306 318,-306 318,-306 312,-306 306,-300 306,-294 306,-294 306,-282 306,-282 306,-276 312,-270 318,-270 318,-270 404,-270 404,-270 410,-270 416,-276 416,-282 416,-282 416,-294 416,-294 416,-300 410,-306 404,-306"/>
<text text-anchor="middle" x="361" y="-285.2" font-family="Helvetica,sans-Serif" font-size="11.00" fill="#111111">ListaExpresiones</text>
</g>
<!-- node0x6488bd61a630&#45;&gt;node0x6488bd3fa2e0 -->
<g id="edge11" class="edge">
<title>node0x6488bd61a630&#45;&gt;node0x6488bd3fa2e0</title>
<path fill="none" stroke="#6b7280" d="M383.47,-359.61C379.22,-346.27 373.31,-327.69 368.62,-312.94"/>
<polygon fill="#6b7280" stroke="#6b7280" points="366.43,-306.05 371.55,-311.77 367.49,-309.39 368.55,-312.72 368.55,-312.72 368.55,-312.72 367.49,-309.39 365.55,-313.68 366.43,-306.05 366.43,-306.05"/>
</g>
<!-- node0x6488bd61a430 -->
<g id="node13" class="node">
<title>node0x6488bd61a430</title>
<path fill="#ffffff" stroke="#a0aec0" d="M401,-216C401,-216 321,-216 321,-216 315,-216 309,-210 309,-204 309,-204 309,-192 309,-192 309,-186 315,-180 321,-180 321,-180 401,-180 401,-180 407,-180 413,-186 413,-192 413,-192 413,-204 413,-204 413,-210 407,-216 401,-216"/>
<text text-anchor="middle" x="361" y="-195.2" font-family="Helvetica,sans-Serif" font-size="11.00" fill="#111111">NegacionUnaria</text>
</g>
<!-- node0x6488bd3fa2e0&#45;&gt;node0x6488bd61a430 -->
<g id="edge12" class="edge">
<title>node0x6488bd3fa2e0&#45;&gt;node0x6488bd61a430</title>
<path fill="none" stroke="#6b7280" d="M361,-269.61C361,-256.39 361,-238.03 361,-223.35"/>
<polygon fill="#6b7280" stroke="#6b7280" points="361,-216.05 364.15,-223.05 361,-219.55 361,-223.05 361,-223.05 361,-223.05 361,-219.55 357.85,-223.05 361,-216.05 361,-216.05"/>
</g>
<!-- node0x6488bd5ddef0 -->
<g id="node14" class="node">
<title>node0x6488bd5ddef0</title>
<path fill="#fff9db" stroke="#b7791f" stroke-width="1.2" d="M381.5,-126C381.5,-126 340.5,-126 340.5,-126 334.5,-126 328.5,-120 328.5,-114 328.5,-114 328.5,-102 328.5,-102 328.5,-96 334.5,-90 340.5,-90 340.5,-90 381.5,-90 381.5,-90 387.5,-90 393.5,-96 393.5,-102 393.5,-102 393.5,-114 393.5,-114 393.5,-120 387.5,-126 381.5,-126"/>
<text text-anchor="middle" x="361" y="-111.2" font-family="Helvetica,sans-Serif" font-size="11.00" fill="#111111">Primitivo</text>
<text text-anchor="middle" x="361" y="-99.2" font-family="Helvetica,sans-Serif" font-size="11.00" fill="#111111">(15)</text>
</g>
<!-- node0x6488bd61a430&#45;&gt;node0x6488bd5ddef0 -->
<g id="edge13" class="edge">
<title>node0x6488bd61a430&#45;&gt;node0x6488bd5ddef0</title>
<path fill="none" stroke="#6b7280" d="M361,-179.61C361,-166.39 361,-148.03 361,-133.35"/>
<polygon fill="#6b7280" stroke="#6b7280" points="361,-126.05 364.15,-133.05 361,-129.55 361,-133.05 361,-133.05 361,-133.05 361,-129.55 357.85,-133.05 361,-126.05 361,-126.05"/>
</g>
<!-- node0x6488bd34ca80 -->
<g id="node16" class="node">
<title>node0x6488bd34ca80</title>
<path fill="#ffffff" stroke="#a0aec0" d="M557,-306C557,-306 471,-306 471,-306 465,-306 459,-300 459,-294 459,-294 459,-282 459,-282 459,-276 465,-270 471,-270 471,-270 557,-270 557,-270 563,-270 569,-276 569,-282 569,-282 569,-294 569,-294 569,-300 563,-306 557,-306"/>
<text text-anchor="middle" x="514" y="-285.2" font-family="Helvetica,sans-Serif" font-size="11.00" fill="#111111">ListaExpresiones</text>
</g>
<!-- node0x6488bd6153a0&#45;&gt;node0x6488bd34ca80 -->
<g id="edge15" class="edge">
<title>node0x6488bd6153a0&#45;&gt;node0x6488bd34ca80</title>
<path fill="none" stroke="#6b7280" d="M536.47,-359.61C532.22,-346.27 526.31,-327.69 521.62,-312.94"/>
<polygon fill="#6b7280" stroke="#6b7280" points="519.43,-306.05 524.55,-311.77 520.49,-309.39 521.55,-312.72 521.55,-312.72 521.55,-312.72 520.49,-309.39 518.55,-313.68 519.43,-306.05 519.43,-306.05"/>
</g>
<!-- node0x6488bd4c8280 -->
<g id="node17" class="node">
<title>node0x6488bd4c8280</title>
<path fill="#fff9db" stroke="#b7791f" stroke-width="1.2" d="M534.5,-216C534.5,-216 493.5,-216 493.5,-216 487.5,-216 481.5,-210 481.5,-204 481.5,-204 481.5,-192 481.5,-192 481.5,-186 487.5,-180 493.5,-180 493.5,-180 534.5,-180 534.5,-180 540.5,-180 546.5,-186 546.5,-192 546.5,-192 546.5,-204 546.5,-204 546.5,-210 540.5,-216 534.5,-216"/>
<text text-anchor="middle" x="514" y="-201.2" font-family="Helvetica,sans-Serif" font-size="11.00" fill="#111111">Primitivo</text>
<text text-anchor="middle" x="514" y="-189.2" font-family="Helvetica,sans-Serif" font-size="11.00" fill="#111111">(3.14f)</text>
</g>
<!-- node0x6488bd34ca80&#45;&gt;node0x6488bd4c8280 -->
<g id="edge16" class="edge">
<title>node0x6488bd34ca80&#45;&gt;node0x6488bd4c8280</title>
<path fill="none" stroke="#6b7280" d="M514,-269.61C514,-256.39 514,-238.03 514,-223.35"/>
<polygon fill="#6b7280" stroke="#6b7280" points="514,-216.05 517.15,-223.05 514,-219.55 514,-223.05 514,-223.05 514,-223.05 514,-219.55 510.85,-223.05 514,-216.05 514,-216.05"/>
</g>
<!-- node0x6488bd3d7d80 -->
<g id="node19" class="node">
<title>node0x6488bd3d7d80</title>
<path fill="#ffffff" stroke="#a0aec0" d="M710,-306C710,-306 624,-306 624,-306 618,-306 612,-300 612,-294 612,-294 612,-282 612,-282 612,-276 618,-270 624,-270 624,-270 710,-270 710,-270 716,-270 722,-276 722,-282 722,-282 722,-294 722,-294 722,-300 716,-306 710,-306"/>
<text text-anchor="middle" x="667" y="-285.2" font-family="Helvetica,sans-Serif" font-size="11.00" fill="#111111">ListaExpresiones</text>
</g>
<!-- node0x6488bd4e3e50&#45;&gt;node0x6488bd3d7d80 -->
<g id="edge18" class="edge">
<title>node0x6488bd4e3e50&#45;&gt;node0x6488bd3d7d80</title>
<path fill="none" stroke="#6b7280" d="M689.47,-359.61C685.22,-346.27 679.31,-327.69 674.62,-312.94"/>
<polygon fill="#6b7280" stroke="#6b7280" points="672.43,-306.05 677.55,-311.77 673.49,-309.39 674.55,-312.72 674.55,-312.72 674.55,-312.72 673.49,-309.39 671.55,-313.68 672.43,-306.05 672.43,-306.05"/>
</g>
<!-- node0x6488bd5fc0f0 -->
<g id="node20" class="node">
<title>node0x6488bd5fc0f0</title>
<path fill="#fff9db" stroke="#b7791f" stroke-width="1.2" d="M687.5,-216C687.5,-216 646.5,-216 646.5,-216 640.5,-216 634.5,-210 634.5,-204 634.5,-204 634.5,-192 634.5,-192 634.5,-186 640.5,-180 646.5,-180 646.5,-180 687.5,-180 687.5,-180 693.5,-180 699.5,-186 699.5,-192 699.5,-192 699.5,-204 699.5,-204 699.5,-210 693.5,-216 687.5,-216"/>
<text text-anchor="middle" x="667" y="-201.2" font-family="Helvetica,sans-Serif" font-size="11.00" fill="#111111">Primitivo</text>
<text text-anchor="middle" x="667" y="-189.2" font-family="Helvetica,sans-Serif" font-size="11.00" fill="#111111">(0.125f)</text>
</g>
<!-- node0x6488bd3d7d80&#45;&gt;node0x6488bd5fc0f0 -->
<g id="edge19" class="edge">
<title>node0x6488bd3d7d80&#45;&gt;node0x6488bd5fc0f0</title>
<path fill="none" stroke="#6b7280" d="M667,-269.61C667,-256.39 667,-238.03 667,-223.35"/>
<polygon fill="#6b7280" stroke="#6b7280" points="667,-216.05 670.15,-223.05 667,-219.55 667,-223.05 667,-223.05 667,-223.05 667,-219.55 663.85,-223.05 667,-216.05 667,-216.05"/>
</g>
<!-- node0x6488bd45b9d0 -->
<g id="node22" class="node">
<title>node0x6488bd45b9d0</title>
<path fill="#ffffff" stroke="#a0aec0" d="M863,-306C863,-306 777,-306 777,-306 771,-306 765,-300 765,-294 765,-294 765,-282 765,-282 765,-276 771,-270 777,-270 777,-270 863,-270 863,-270 869,-270 875,-276 875,-282 875,-282 875,-294 875,-294 875,-300 869,-306 863,-306"/>
<text text-anchor="middle" x="820" y="-285.2" font-family="Helvetica,sans-Serif" font-size="11.00" fill="#111111">ListaExpresiones</text>
</g>
<!-- node0x6488bd5ec410&#45;&gt;node0x6488bd45b9d0 -->
<g id="edge21" class="edge">
<title>node0x6488bd5ec410&#45;&gt;node0x6488bd45b9d0</title>
<path fill="none" stroke="#6b7280" d="M842.47,-359.61C838.22,-346.27 832.31,-327.69 827.62,-312.94"/>
<polygon fill="#6b7280" stroke="#6b7280" points="825.43,-306.05 830.55,-311.77 826.49,-309.39 827.55,-312.72 827.55,-312.72 827.55,-312.72 826.49,-309.39 824.55,-313.68 825.43,-306.05 825.43,-306.05"/>
</g>
<!-- node0x6488bd615990 -->
<g id="node23" class="node">
<title>node0x6488bd615990</title>
<path fill="#fff9db" stroke="#b7791f" stroke-width="1.2" d="M856.5,-216C856.5,-216 783.5,-216 783.5,-216 777.5,-216 771.5,-210 771.5,-204 771.5,-204 771.5,-192 771.5,-192 771.5,-186 777.5,-180 783.5,-180 783.5,-180 856.5,-180 856.5,-180 862.5,-180 868.5,-186 868.5,-192 868.5,-192 868.5,-204 868.5,-204 868.5,-210 862.5,-216 856.5,-216"/>
<text text-anchor="middle" x="820" y="-201.2" font-family="Helvetica,sans-Serif" font-size="11.00" fill="#111111">Primitivo</text>
<text text-anchor="middle" x="820" y="-189.2" font-family="Helvetica,sans-Serif" font-size="11.00" fill="#111111">(2.718281828)</text>
</g>
<!-- node0x6488bd45b9d0&#45;&gt;node0x6488bd615990 -->
<g id="edge22" class="edge">
<title>node0x6488bd45b9d0&#45;&gt;node0x6488bd615990</title>
<path fill="none" stroke="#6b7280" d="M820,-269.61C820,-256.39 820,-238.03 820,-223.35"/>
<polygon fill="#6b7280" stroke="#6b7280" points="820,-216.05 823.15,-223.05 820,-219.55 820,-223.05 820,-223.05 820,-223.05 820,-219.55 816.85,-223.05 820,-216.05 820,-216.05"/>
</g>
<!-- node0x6488bd565db0 -->
<g id="node25" class="node">
<title>node0x6488bd565db0</title>
<path fill="#ffffff" stroke="#a0aec0" d="M1016,-306C1016,-306 930,-306 930,-306 924,-306 918,-300 918,-294 918,-294 918,-282 918,-282 918,-276 924,-270 930,-270 930,-270 1016,-270 1016,-270 1022,-270 1028,-276 1028,-282 1028,-282 1028,-294 1028,-294 1028,-300 1022,-306 1016,-306"/>
<text text-anchor="middle" x="973" y="-285.2" font-family="Helvetica,sans-Serif" font-size="11.00" fill="#111111">ListaExpresiones</text>
</g>
<!-- node0x6488bd3fa280&#45;&gt;node0x6488bd565db0 -->
<g id="edge24" class="edge">
<title>node0x6488bd3fa280&#45;&gt;node0x6488bd565db0</title>
<path fill="none" stroke="#6b7280" d="M995.47,-359.61C991.22,-346.27 985.31,-327.69 980.62,-312.94"/>
<polygon fill="#6b7280" stroke="#6b7280" points="978.43,-306.05 983.55,-311.77 979.49,-309.39 980.55,-312.72 980.55,-312.72 980.55,-312.72 979.49,-309.39 977.55,-313.68 978.43,-306.05 978.43,-306.05"/>
</g>
<!-- node0x6488bd2c31c0 -->
<g id="node26" class="node">
<title>node0x6488bd2c31c0</title>
<path fill="#fff9db" stroke="#b7791f" stroke-width="1.2" d="M1016,-216C1016,-216 930,-216 930,-216 924,-216 918,-210 918,-204 918,-204 918,-192 918,-192 918,-186 924,-180 930,-180 930,-180 1016,-180 1016,-180 1022,-180 1028,-186 1028,-192 1028,-192 1028,-204 1028,-204 1028,-210 1022,-216 1016,-216"/>
<text text-anchor="middle" x="973" y="-201.2" font-family="Helvetica,sans-Serif" font-size="11.00" fill="#111111">Primitivo</text>
<text text-anchor="middle" x="973" y="-189.2" font-family="Helvetica,sans-Serif" font-size="11.00" fill="#111111">(123456.000001)</text>
</g>
<!-- node0x6488bd565db0&#45;&gt;node0x6488bd2c31c0 -->
<g id="edge25" class="edge">
<title>node0x6488bd565db0&#45;&gt;node0x6488bd2c31c0</title>
<path fill="none" stroke="#6b7280" d="M973,-269.61C973,-256.39 973,-238.03 973,-223.35"/>
<polygon fill="#6b7280" stroke="#6b7280" points="973,-216.05 976.15,-223.05 973,-219.55 973,-223.05 973,-223.05 973,-223.05 973,-219.55 969.85,-223.05 973,-216.05 973,-216.05"/>
</g>
<!-- node0x6488bd6018b0 -->
<g id="node28" class="node">
<title>node0x6488bd6018b0</title>
<path fill="#ffffff" stroke="#a0aec0" d="M1169,-306C1169,-306 1083,-306 1083,-306 1077,-306 1071,-300 1071,-294 1071,-294 1071,-282 1071,-282 1071,-276 1077,-270 1083,-270 1083,-270 1169,-270 1169,-270 1175,-270 1181,-276 1181,-282 1181,-282 1181,-294 1181,-294 1181,-300 1175,-306 1169,-306"/>
<text text-anchor="middle" x="1126" y="-285.2" font-family="Helvetica,sans-Serif" font-size="11.00" fill="#111111">ListaExpresiones</text>
</g>
<!-- node0x6488bd62e570&#45;&gt;node0x6488bd6018b0 -->
<g id="edge27" class="edge">
<title>node0x6488bd62e570&#45;&gt;node0x6488bd6018b0</title>
<path fill="none" stroke="#6b7280" d="M1148.47,-359.61C1144.22,-346.27 1138.31,-327.69 1133.62,-312.94"/>
<polygon fill="#6b7280" stroke="#6b7280" points="1131.43,-306.05 1136.55,-311.77 1132.49,-309.39 1133.55,-312.72 1133.55,-312.72 1133.55,-312.72 1132.49,-309.39 1130.55,-313.68 1131.43,-306.05 1131.43,-306.05"/>
</g>
<!-- node0x6488bd4dbab0 -->
<g id="node29" class="node">
<title>node0x6488bd4dbab0</title>
<path fill="#fff9db" stroke="#b7791f" stroke-width="1.2" d="M1146.5,-216C1146.5,-216 1105.5,-216 1105.5,-216 1099.5,-216 1093.5,-210 1093.5,-204 1093.5,-204 1093.5,-192 1093.5,-192 1093.5,-186 1099.5,-180 1105.5,-180 1105.5,-180 1146.5,-180 1146.5,-180 1152.5,-180 1158.5,-186 1158.5,-192 1158.5,-192 1158.5,-204 1158.5,-204 1158.5,-210 1152.5,-216 1146.5,-216"/>
<text text-anchor="middle" x="1126" y="-201.2" font-family="Helvetica,sans-Serif" font-size="11.00" fill="#111111">Primitivo</text>
<text text-anchor="middle" x="1126" y="-189.2" font-family="Helvetica,sans-Serif" font-size="11.00" fill="#111111">(true)</text>
</g>
<!-- node0x6488bd6018b0&#45;&gt;node0x6488bd4dbab0 -->
<g id="edge28" class="edge">
<title>node0x6488bd6018b0&#45;&gt;node0x6488bd4dbab0</title>
<path fill="none" stroke="#6b7280" d="M1126,-269.61C1126,-256.39 1126,-238.03 1126,-223.35"/>
<polygon fill="#6b7280" stroke="#6b7280" points="1126,-216.05 1129.15,-223.05 1126,-219.55 1126,-223.05 1126,-223.05 1126,-223.05 1126,-219.55 1122.85,-223.05 1126,-216.05 1126,-216.05"/>
</g>
<!-- node0x6488bd550250 -->
<g id="node31" class="node">
<title>node0x6488bd550250</title>
<path fill="#ffffff" stroke="#a0aec0" d="M1322,-306C1322,-306 1236,-306 1236,-306 1230,-306 1224,-300 1224,-294 1224,-294 1224,-282 1224,-282 1224,-276 1230,-270 1236,-270 1236,-270 1322,-270 1322,-270 1328,-270 1334,-276 1334,-282 1334,-282 1334,-294 1334,-294 1334,-300 1328,-306 1322,-306"/>
<text text-anchor="middle" x="1279" y="-285.2" font-family="Helvetica,sans-Serif" font-size="11.00" fill="#111111">ListaExpresiones</text>
</g>
<!-- node0x6488bd5ef8b0&#45;&gt;node0x6488bd550250 -->
<g id="edge30" class="edge">
<title>node0x6488bd5ef8b0&#45;&gt;node0x6488bd550250</title>
<path fill="none" stroke="#6b7280" d="M1301.47,-359.61C1297.22,-346.27 1291.31,-327.69 1286.62,-312.94"/>
<polygon fill="#6b7280" stroke="#6b7280" points="1284.43,-306.05 1289.55,-311.77 1285.49,-309.39 1286.55,-312.72 1286.55,-312.72 1286.55,-312.72 1285.49,-309.39 1283.55,-313.68 1284.43,-306.05 1284.43,-306.05"/>
</g>
<!-- node0x6488bd46e3d0 -->
<g id="node32" class="node">
<title>node0x6488bd46e3d0</title>
<path fill="#fff9db" stroke="#b7791f" stroke-width="1.2" d="M1299.5,-216C1299.5,-216 1258.5,-216 1258.5,-216 1252.5,-216 1246.5,-210 1246.5,-204 1246.5,-204 1246.5,-192 1246.5,-192 1246.5,-186 1252.5,-180 1258.5,-180 1258.5,-180 1299.5,-180 1299.5,-180 1305.5,-180 1311.5,-186 1311.5,-192 1311.5,-192 1311.5,-204 1311.5,-204 1311.5,-210 1305.5,-216 1299.5,-216"/>
<text text-anchor="middle" x="1279" y="-201.2" font-family="Helvetica,sans-Serif" font-size="11.00" fill="#111111">Primitivo</text>
<text text-anchor="middle" x="1279" y="-189.2" font-family="Helvetica,sans-Serif" font-size="11.00" fill="#111111">(false)</text>
</g>
<!-- node0x6488bd550250&#45;&gt;node0x6488bd46e3d0 -->
<g id="edge31" class="edge">
<title>node0x6488bd550250&#45;&gt;node0x6488bd46e3d0</title>
<path fill="none" stroke="#6b7280" d="M1279,-269.61C1279,-256.39 1279,-238.03 1279,-223.35"/>
<polygon fill="#6b7280" stroke="#6b7280" points="1279,-216.05 1282.15,-223.05 1279,-219.55 1279,-223.05 1279,-223.05 1279,-223.05 1279,-219.55 1275.85,-223.05 1279,-216.05 1279,-216.05"/>
</g>
<!-- node0x6488bd610ba0 -->
<g id="node34" class="node">
<title>node0x6488bd610ba0</title>
<path fill="#ffffff" stroke="#a0aec0" d="M1475,-306C1475,-306 1389,-306 1389,-306 1383,-306 1377,-300 1377,-294 1377,-294 1377,-282 1377,-282 1377,-276 1383,-270 1389,-270 1389,-270 1475,-270 1475,-270 1481,-270 1487,-276 1487,-282 1487,-282 1487,-294 1487,-294 1487,-300 1481,-306 1475,-306"/>
<text text-anchor="middle" x="1432" y="-285.2" font-family="Helvetica,sans-Serif" font-size="11.00" fill="#111111">ListaExpresiones</text>
</g>
<!-- node0x6488bd5f5410&#45;&gt;node0x6488bd610ba0 -->
<g id="edge33" class="edge">
<title>node0x6488bd5f5410&#45;&gt;node0x6488bd610ba0</title>
<path fill="none" stroke="#6b7280" d="M1454.47,-359.61C1450.22,-346.27 1444.31,-327.69 1439.62,-312.94"/>
<polygon fill="#6b7280" stroke="#6b7280" points="1437.43,-306.05 1442.55,-311.77 1438.49,-309.39 1439.55,-312.72 1439.55,-312.72 1439.55,-312.72 1438.49,-309.39 1436.55,-313.68 1437.43,-306.05 1437.43,-306.05"/>
</g>
<!-- node0x6488bd610b50 -->
<g id="node35" class="node">
<title>node0x6488bd610b50</title>
<path fill="#fff9db" stroke="#b7791f" stroke-width="1.2" d="M1452.5,-216C1452.5,-216 1411.5,-216 1411.5,-216 1405.5,-216 1399.5,-210 1399.5,-204 1399.5,-204 1399.5,-192 1399.5,-192 1399.5,-186 1405.5,-180 1411.5,-180 1411.5,-180 1452.5,-180 1452.5,-180 1458.5,-180 1464.5,-186 1464.5,-192 1464.5,-192 1464.5,-204 1464.5,-204 1464.5,-210 1458.5,-216 1452.5,-216"/>
<text text-anchor="middle" x="1432" y="-201.2" font-family="Helvetica,sans-Serif" font-size="11.00" fill="#111111">Primitivo</text>
<text text-anchor="middle" x="1432" y="-189.2" font-family="Helvetica,sans-Serif" font-size="11.00" fill="#111111">(Z)</text>
</g>
<!-- node0x6488bd610ba0&#45;&gt;node0x6488bd610b50 -->
<g id="edge34" class="edge">
<title>node0x6488bd610ba0&#45;&gt;node0x6488bd610b50</title>
<path fill="none" stroke="#6b7280" d="M1432,-269.61C1432,-256.39 1432,-238.03 1432,-223.35"/>
<polygon fill="#6b7280" stroke="#6b7280" points="1432,-216.05 1435.15,-223.05 1432,-219.55 1432,-223.05 1432,-223.05 1432,-223.05 1432,-219.55 1428.85,-223.05 1432,-216.05 1432,-216.05"/>
</g>
<!-- node0x6488bd5274e0 -->
<g id="node37" class="node">
<title>node0x6488bd5274e0</title>
<path fill="#ffffff" stroke="#a0aec0" d="M1628,-306C1628,-306 1542,-306 1542,-306 1536,-306 1530,-300 1530,-294 1530,-294 1530,-282 1530,-282 1530,-276 1536,-270 1542,-270 1542,-270 1628,-270 1628,-270 1634,-270 1640,-276 1640,-282 1640,-282 1640,-294 1640,-294 1640,-300 1634,-306 1628,-306"/>
<text text-anchor="middle" x="1585" y="-285.2" font-family="Helvetica,sans-Serif" font-size="11.00" fill="#111111">ListaExpresiones</text>
</g>
<!-- node0x6488bd568d40&#45;&gt;node0x6488bd5274e0 -->
<g id="edge36" class="edge">
<title>node0x6488bd568d40&#45;&gt;node0x6488bd5274e0</title>
<path fill="none" stroke="#6b7280" d="M1587.41,-359.61C1586.96,-346.39 1586.33,-328.03 1585.83,-313.35"/>
<polygon fill="#6b7280" stroke="#6b7280" points="1585.58,-306.05 1588.97,-312.94 1585.7,-309.55 1585.82,-313.05 1585.82,-313.05 1585.82,-313.05 1585.7,-309.55 1582.67,-313.15 1585.58,-306.05 1585.58,-306.05"/>
</g>
<!-- node0x6488bd527490 -->
<g id="node38" class="node">
<title>node0x6488bd527490</title>
<path fill="#fff9db" stroke="#b7791f" stroke-width="1.2" d="M1605.5,-216C1605.5,-216 1564.5,-216 1564.5,-216 1558.5,-216 1552.5,-210 1552.5,-204 1552.5,-204 1552.5,-192 1552.5,-192 1552.5,-186 1558.5,-180 1564.5,-180 1564.5,-180 1605.5,-180 1605.5,-180 1611.5,-180 1617.5,-186 1617.5,-192 1617.5,-192 1617.5,-204 1617.5,-204 1617.5,-210 1611.5,-216 1605.5,-216"/>
<text text-anchor="middle" x="1585" y="-201.2" font-family="Helvetica,sans-Serif" font-size="11.00" fill="#111111">Primitivo</text>
<text text-anchor="middle" x="1585" y="-189.2" font-family="Helvetica,sans-Serif" font-size="11.00" fill="#111111">(\n)</text>
</g>
<!-- node0x6488bd5274e0&#45;&gt;node0x6488bd527490 -->
<g id="edge37" class="edge">
<title>node0x6488bd5274e0&#45;&gt;node0x6488bd527490</title>
<path fill="none" stroke="#6b7280" d="M1585,-269.61C1585,-256.39 1585,-238.03 1585,-223.35"/>
<polygon fill="#6b7280" stroke="#6b7280" points="1585,-216.05 1588.15,-223.05 1585,-219.55 1585,-223.05 1585,-223.05 1585,-223.05 1585,-219.55 1581.85,-223.05 1585,-216.05 1585,-216.05"/>
</g>
<!-- node0x6488bd5ecf20 -->
<g id="node40" class="node">
<title>node0x6488bd5ecf20</title>
<path fill="#ffffff" stroke="#a0aec0" d="M1781,-306C1781,-306 1695,-306 1695,-306 1689,-306 1683,-300 1683,-294 1683,-294 1683,-282 1683,-282 1683,-276 1689,-270 1695,-270 1695,-270 1781,-270 1781,-270 1787,-270 1793,-276 1793,-282 1793,-282 1793,-294 1793,-294 1793,-300 1787,-306 1781,-306"/>
<text text-anchor="middle" x="1738" y="-285.2" font-family="Helvetica,sans-Serif" font-size="11.00" fill="#111111">ListaExpresiones</text>
</g>
<!-- node0x6488bd289080&#45;&gt;node0x6488bd5ecf20 -->
<g id="edge39" class="edge">
<title>node0x6488bd289080&#45;&gt;node0x6488bd5ecf20</title>
<path fill="none" stroke="#6b7280" d="M1716.33,-359.61C1720.43,-346.27 1726.13,-327.69 1730.65,-312.94"/>
<polygon fill="#6b7280" stroke="#6b7280" points="1732.77,-306.05 1733.73,-313.67 1731.74,-309.4 1730.72,-312.74 1730.72,-312.74 1730.72,-312.74 1731.74,-309.4 1727.7,-311.82 1732.77,-306.05 1732.77,-306.05"/>
</g>
<!-- node0x6488bd5eced0 -->
<g id="node41" class="node">
<title>node0x6488bd5eced0</title>
<path fill="#fff9db" stroke="#b7791f" stroke-width="1.2" d="M1758.5,-216C1758.5,-216 1717.5,-216 1717.5,-216 1711.5,-216 1705.5,-210 1705.5,-204 1705.5,-204 1705.5,-192 1705.5,-192 1705.5,-186 1711.5,-180 1717.5,-180 1717.5,-180 1758.5,-180 1758.5,-180 1764.5,-180 1770.5,-186 1770.5,-192 1770.5,-192 1770.5,-204 1770.5,-204 1770.5,-210 1764.5,-216 1758.5,-216"/>
<text text-anchor="middle" x="1738" y="-201.2" font-family="Helvetica,sans-Serif" font-size="11.00" fill="#111111">Primitivo</text>
<text text-anchor="middle" x="1738" y="-189.2" font-family="Helvetica,sans-Serif" font-size="11.00" fill="#111111">(\t)</text>
</g>
<!-- node0x6488bd5ecf20&#45;&gt;node0x6488bd5eced0 -->
<g id="edge40" class="edge">
<title>node0x6488bd5ecf20&#45;&gt;node0x6488bd5eced0</title>
<path fill="none" stroke="#6b7280" d="M1738,-269.61C1738,-256.39 1738,-238.03 1738,-223.35"/>
<polygon fill="#6b7280" stroke="#6b7280" points="1738,-216.05 1741.15,-223.05 1738,-219.55 1738,-223.05 1738,-223.05 1738,-223.05 1738,-219.55 1734.85,-223.05 1738,-216.05 1738,-216.05"/>
</g>
<!-- node0x6488bd5fb7d0 -->
<g id="node43" class="node">
<title>node0x6488bd5fb7d0</title>
<path fill="#fff9db" stroke="#b7791f" stroke-width="1.2" d="M1889.5,-306C1889.5,-306 1848.5,-306 1848.5,-306 1842.5,-306 1836.5,-300 1836.5,-294 1836.5,-294 1836.5,-282 1836.5,-282 1836.5,-276 1842.5,-270 1848.5,-270 1848.5,-270 1889.5,-270 1889.5,-270 1895.5,-270 1901.5,-276 1901.5,-282 1901.5,-282 1901.5,-294 1901.5,-294 1901.5,-300 1895.5,-306 1889.5,-306"/>
<text text-anchor="middle" x="1869" y="-291.2" font-family="Helvetica,sans-Serif" font-size="11.00" fill="#111111">Primitivo</text>
<text text-anchor="middle" x="1869" y="-279.2" font-family="Helvetica,sans-Serif" font-size="11.00" fill="#111111">(10)</text>
</g>
<!-- node0x6488bd641d90&#45;&gt;node0x6488bd5fb7d0 -->
<g id="edge42" class="edge">
<title>node0x6488bd641d90&#45;&gt;node0x6488bd5fb7d0</title>
<path fill="none" stroke="#6b7280" d="M1841.72,-359.61C1846.87,-346.27 1854.05,-327.69 1859.75,-312.94"/>
<polygon fill="#6b7280" stroke="#6b7280" points="1862.41,-306.05 1862.83,-313.72 1861.15,-309.32 1859.89,-312.58 1859.89,-312.58 1859.89,-312.58 1861.15,-309.32 1856.95,-311.44 1862.41,-306.05 1862.41,-306.05"/>
</g>
<!-- node0x6488bd5fb820 -->
<g id="node45" class="node">
<title>node0x6488bd5fb820</title>
<path fill="#fff9db" stroke="#b7791f" stroke-width="1.2" d="M1997.5,-306C1997.5,-306 1956.5,-306 1956.5,-306 1950.5,-306 1944.5,-300 1944.5,-294 1944.5,-294 1944.5,-282 1944.5,-282 1944.5,-276 1950.5,-270 1956.5,-270 1956.5,-270 1997.5,-270 1997.5,-270 2003.5,-270 2009.5,-276 2009.5,-282 2009.5,-282 2009.5,-294 2009.5,-294 2009.5,-300 2003.5,-306 1997.5,-306"/>
<text text-anchor="middle" x="1977" y="-291.2" font-family="Helvetica,sans-Serif" font-size="11.00" fill="#111111">Primitivo</text>
<text text-anchor="middle" x="1977" y="-279.2" font-family="Helvetica,sans-Serif" font-size="11.00" fill="#111111">(1.5f)</text>
</g>
<!-- node0x6488bd5fe340&#45;&gt;node0x6488bd5fb820 -->
<g id="edge44" class="edge">
<title>node0x6488bd5fe340&#45;&gt;node0x6488bd5fb820</title>
<path fill="none" stroke="#6b7280" d="M1973.79,-359.61C1974.39,-346.39 1975.23,-328.03 1975.89,-313.35"/>
<polygon fill="#6b7280" stroke="#6b7280" points="1976.22,-306.05 1979.05,-313.19 1976.07,-309.55 1975.91,-313.04 1975.91,-313.04 1975.91,-313.04 1976.07,-309.55 1972.76,-312.9 1976.22,-306.05 1976.22,-306.05"/>
</g>
<!-- node0x6488bd642e80 -->
<g id="node47" class="node">
<title>node0x6488bd642e80</title>
<path fill="#ffffff" stroke="#a0aec0" d="M2151,-306C2151,-306 2065,-306 2065,-306 2059,-306 2053,-300 2053,-294 2053,-294 2053,-282 2053,-282 2053,-276 2059,-270 2065,-270 2065,-270 2151,-270 2151,-270 2157,-270 2163,-276 2163,-282 2163,-282 2163,-294 2163,-294 2163,-300 2157,-306 2151,-306"/>
<text text-anchor="middle" x="2108" y="-285.2" font-family="Helvetica,sans-Serif" font-size="11.00" fill="#111111">ListaExpresiones</text>
</g>
<!-- node0x6488bd642ee0&#45;&gt;node0x6488bd642e80 -->
<g id="edge46" class="edge">
<title>node0x6488bd642ee0&#45;&gt;node0x6488bd642e80</title>
<path fill="none" stroke="#6b7280" d="M2102.38,-359.61C2103.43,-346.39 2104.9,-328.03 2106.06,-313.35"/>
<polygon fill="#6b7280" stroke="#6b7280" points="2106.64,-306.05 2109.23,-313.28 2106.37,-309.54 2106.09,-313.03 2106.09,-313.03 2106.09,-313.03 2106.37,-309.54 2102.95,-312.78 2106.64,-306.05 2106.64,-306.05"/>
</g>
<!-- node0x6488bd632bd0 -->
<g id="node48" class="node">
<title>node0x6488bd632bd0</title>
<path fill="#ffffff" stroke="#a0aec0" d="M2076,-216C2076,-216 1996,-216 1996,-216 1990,-216 1984,-210 1984,-204 1984,-204 1984,-192 1984,-192 1984,-186 1990,-180 1996,-180 1996,-180 2076,-180 2076,-180 2082,-180 2088,-186 2088,-192 2088,-192 2088,-204 2088,-204 2088,-210 2082,-216 2076,-216"/>
<text text-anchor="middle" x="2036" y="-195.2" font-family="Helvetica,sans-Serif" font-size="11.00" fill="#111111">NegacionUnaria</text>
</g>
<!-- node0x6488bd642e80&#45;&gt;node0x6488bd632bd0 -->
<g id="edge47" class="edge">
<title>node0x6488bd642e80&#45;&gt;node0x6488bd632bd0</title>
<path fill="none" stroke="#6b7280" d="M2093.78,-269.61C2082.56,-255.91 2066.83,-236.68 2054.61,-221.75"/>
<polygon fill="#6b7280" stroke="#6b7280" points="2049.95,-216.05 2056.82,-219.47 2052.17,-218.76 2054.38,-221.47 2054.38,-221.47 2054.38,-221.47 2052.17,-218.76 2051.95,-223.46 2049.95,-216.05 2049.95,-216.05"/>
</g>
<!-- node0x6488bd632b60 -->
<g id="node49" class="node">
<title>node0x6488bd632b60</title>
<path fill="#e8f8f0" stroke="#2f855a" d="M2021,-126C2021,-126 1991,-126 1991,-126 1985,-126 1979,-120 1979,-114 1979,-114 1979,-102 1979,-102 1979,-96 1985,-90 1991,-90 1991,-90 2021,-90 2021,-90 2027,-90 2033,-96 2033,-102 2033,-102 2033,-114 2033,-114 2033,-120 2027,-126 2021,-126"/>
<text text-anchor="middle" x="2006" y="-111.2" font-family="Helvetica,sans-Serif" font-size="11.00" fill="#111111">ID</text>
<text text-anchor="middle" x="2006" y="-99.2" font-family="Helvetica,sans-Serif" font-size="11.00" fill="#111111">(base)</text>
</g>
<!-- node0x6488bd632bd0&#45;&gt;node0x6488bd632b60 -->
<g id="edge48" class="edge">
<title>node0x6488bd632bd0&#45;&gt;node0x6488bd632b60</title>
<path fill="none" stroke="#6b7280" d="M2030.07,-179.61C2025.52,-166.27 2019.19,-147.69 2014.16,-132.94"/>
<polygon fill="#6b7280" stroke="#6b7280" points="2011.81,-126.05 2017.05,-131.66 2012.94,-129.36 2014.07,-132.68 2014.07,-132.68 2014.07,-132.68 2012.94,-129.36 2011.09,-133.69 2011.81,-126.05 2011.81,-126.05"/>
</g>
<!-- node0x6488bd622980 -->
<g id="node51" class="node">
<title>node0x6488bd622980</title>
<path fill="#ffffff" stroke="#a0aec0" d="M2304,-306C2304,-306 2218,-306 2218,-306 2212,-306 2206,-300 2206,-294 2206,-294 2206,-282 2206,-282 2206,-276 2212,-270 2218,-270 2218,-270 2304,-270 2304,-270 2310,-270 2316,-276 2316,-282 2316,-282 2316,-294 2316,-294 2316,-300 2310,-306 2304,-306"/>
<text text-anchor="middle" x="2261" y="-285.2" font-family="Helvetica,sans-Serif" font-size="11.00" fill="#111111">ListaExpresiones</text>
</g>
<!-- node0x6488bd6229e0&#45;&gt;node0x6488bd622980 -->
<g id="edge50" class="edge">
<title>node0x6488bd6229e0&#45;&gt;node0x6488bd622980</title>
<path fill="none" stroke="#6b7280" d="M2236.93,-359.61C2241.48,-346.27 2247.81,-327.69 2252.84,-312.94"/>
<polygon fill="#6b7280" stroke="#6b7280" points="2255.19,-306.05 2255.91,-313.69 2254.06,-309.36 2252.93,-312.68 2252.93,-312.68 2252.93,-312.68 2254.06,-309.36 2249.95,-311.66 2255.19,-306.05 2255.19,-306.05"/>
</g>
<!-- node0x6488bd635860 -->
<g id="node52" class="node">
<title>node0x6488bd635860</title>
<path fill="#ffffff" stroke="#a0aec0" d="M2240,-216C2240,-216 2172,-216 2172,-216 2166,-216 2160,-210 2160,-204 2160,-204 2160,-192 2160,-192 2160,-186 2166,-180 2172,-180 2172,-180 2240,-180 2240,-180 2246,-180 2252,-186 2252,-192 2252,-192 2252,-204 2252,-204 2252,-210 2246,-216 2240,-216"/>
<text text-anchor="middle" x="2206" y="-195.2" font-family="Helvetica,sans-Serif" font-size="11.00" fill="#111111">Multiplicacion</text>
</g>
<!-- node0x6488bd622980&#45;&gt;node0x6488bd635860 -->
<g id="edge51" class="edge">
<title>node0x6488bd622980&#45;&gt;node0x6488bd635860</title>
<path fill="none" stroke="#6b7280" d="M2250.13,-269.61C2241.64,-256.03 2229.76,-237.02 2220.46,-222.14"/>
<polygon fill="#6b7280" stroke="#6b7280" points="2216.66,-216.05 2223.04,-220.32 2218.51,-219.02 2220.37,-221.99 2220.37,-221.99 2220.37,-221.99 2218.51,-219.02 2217.7,-223.66 2216.66,-216.05 2216.66,-216.05"/>
</g>
<!-- node0x6488bd610c30 -->
<g id="node53" class="node">
<title>node0x6488bd610c30</title>
<path fill="#e8f8f0" stroke="#2f855a" d="M2118,-126C2118,-126 2088,-126 2088,-126 2082,-126 2076,-120 2076,-114 2076,-114 2076,-102 2076,-102 2076,-96 2082,-90 2088,-90 2088,-90 2118,-90 2118,-90 2124,-90 2130,-96 2130,-102 2130,-102 2130,-114 2130,-114 2130,-120 2124,-126 2118,-126"/>
<text text-anchor="middle" x="2103" y="-111.2" font-family="Helvetica,sans-Serif" font-size="11.00" fill="#111111">ID</text>
<text text-anchor="middle" x="2103" y="-99.2" font-family="Helvetica,sans-Serif" font-size="11.00" fill="#111111">(base)</text>
</g>
<!-- node0x6488bd635860&#45;&gt;node0x6488bd610c30 -->
<g id="edge52" class="edge">
<title>node0x6488bd635860&#45;&gt;node0x6488bd610c30</title>
<path fill="none" stroke="#6b7280" d="M2185.65,-179.61C2169.32,-165.66 2146.3,-145.99 2128.7,-130.96"/>
<polygon fill="#6b7280" stroke="#6b7280" points="2122.96,-126.05 2130.33,-128.2 2125.62,-128.32 2128.28,-130.6 2128.28,-130.6 2128.28,-130.6 2125.62,-128.32 2126.23,-132.99 2122.96,-126.05 2122.96,-126.05"/>
</g>
<!-- node0x6488bd610ca0 -->
<g id="node54" class="node">
<title>node0x6488bd610ca0</title>
<path fill="#fff9db" stroke="#b7791f" stroke-width="1.2" d="M2226.5,-126C2226.5,-126 2185.5,-126 2185.5,-126 2179.5,-126 2173.5,-120 2173.5,-114 2173.5,-114 2173.5,-102 2173.5,-102 2173.5,-96 2179.5,-90 2185.5,-90 2185.5,-90 2226.5,-90 2226.5,-90 2232.5,-90 2238.5,-96 2238.5,-102 2238.5,-102 2238.5,-114 2238.5,-114 2238.5,-120 2232.5,-126 2226.5,-126"/>
<text text-anchor="middle" x="2206" y="-111.2" font-family="Helvetica,sans-Serif" font-size="11.00" fill="#111111">Primitivo</text>
<text text-anchor="middle" x="2206" y="-99.2" font-family="Helvetica,sans-Serif" font-size="11.00" fill="#111111">(3)</text>
</g>
<!-- node0x6488bd635860&#45;&gt;node0x6488bd610ca0 -->
<g id="edge53" class="edge">
<title>node0x6488bd635860&#45;&gt;node0x6488bd610ca0</title>
<path fill="none" stroke="#6b7280" d="M2206,-179.61C2206,-166.39 2206,-148.03 2206,-133.35"/>
<polygon fill="#6b7280" stroke="#6b7280" points="2206,-126.05 2209.15,-133.05 2206,-129.55 2206,-133.05 2206,-133.05 2206,-133.05 2206,-129.55 2202.85,-133.05 2206,-126.05 2206,-126.05"/>
</g>
<!-- node0x6488bd6301d0 -->
<g id="node56" class="node">
<title>node0x6488bd6301d0</title>
<path fill="#ffffff" stroke="#a0aec0" d="M2457,-306C2457,-306 2371,-306 2371,-306 2365,-306 2359,-300 2359,-294 2359,-294 2359,-282 2359,-282 2359,-276 2365,-270 2371,-270 2371,-270 2457,-270 2457,-270 2463,-270 2469,-276 2469,-282 2469,-282 2469,-294 2469,-294 2469,-300 2463,-306 2457,-306"/>
<text text-anchor="middle" x="2414" y="-285.2" font-family="Helvetica,sans-Serif" font-size="11.00" fill="#111111">ListaExpresiones</text>
</g>
<!-- node0x6488bd5fe7b0&#45;&gt;node0x6488bd6301d0 -->
<g id="edge55" class="edge">
<title>node0x6488bd5fe7b0&#45;&gt;node0x6488bd6301d0</title>
<path fill="none" stroke="#6b7280" d="M2380.3,-359.61C2386.72,-346.15 2395.69,-327.36 2402.76,-312.54"/>
<polygon fill="#6b7280" stroke="#6b7280" points="2405.86,-306.05 2405.69,-313.72 2404.35,-309.21 2402.85,-312.37 2402.85,-312.37 2402.85,-312.37 2404.35,-309.21 2400,-311.01 2405.86,-306.05 2405.86,-306.05"/>
</g>
<!-- node0x6488bd62e7c0 -->
<g id="node57" class="node">
<title>node0x6488bd62e7c0</title>
<path fill="#ffffff" stroke="#a0aec0" d="M2427,-216C2427,-216 2397,-216 2397,-216 2391,-216 2385,-210 2385,-204 2385,-204 2385,-192 2385,-192 2385,-186 2391,-180 2397,-180 2397,-180 2427,-180 2427,-180 2433,-180 2439,-186 2439,-192 2439,-192 2439,-204 2439,-204 2439,-210 2433,-216 2427,-216"/>
<text text-anchor="middle" x="2412" y="-195.2" font-family="Helvetica,sans-Serif" font-size="11.00" fill="#111111">Resta</text>
</g>
<!-- node0x6488bd6301d0&#45;&gt;node0x6488bd62e7c0 -->
<g id="edge56" class="edge">
<title>node0x6488bd6301d0&#45;&gt;node0x6488bd62e7c0</title>
<path fill="none" stroke="#6b7280" d="M2413.6,-269.61C2413.3,-256.39 2412.89,-238.03 2412.55,-223.35"/>
<polygon fill="#6b7280" stroke="#6b7280" points="2412.39,-216.05 2415.7,-222.98 2412.47,-219.55 2412.55,-223.05 2412.55,-223.05 2412.55,-223.05 2412.47,-219.55 2409.4,-223.12 2412.39,-216.05 2412.39,-216.05"/>
</g>
<!-- node0x6488bd5fe6f0 -->
<g id="node58" class="node">
<title>node0x6488bd5fe6f0</title>
<path fill="#e8f8f0" stroke="#2f855a" d="M2324,-126C2324,-126 2294,-126 2294,-126 2288,-126 2282,-120 2282,-114 2282,-114 2282,-102 2282,-102 2282,-96 2288,-90 2294,-90 2294,-90 2324,-90 2324,-90 2330,-90 2336,-96 2336,-102 2336,-102 2336,-114 2336,-114 2336,-120 2330,-126 2324,-126"/>
<text text-anchor="middle" x="2309" y="-111.2" font-family="Helvetica,sans-Serif" font-size="11.00" fill="#111111">ID</text>
<text text-anchor="middle" x="2309" y="-99.2" font-family="Helvetica,sans-Serif" font-size="11.00" fill="#111111">(base)</text>
</g>
<!-- node0x6488bd62e7c0&#45;&gt;node0x6488bd5fe6f0 -->
<g id="edge57" class="edge">
<title>node0x6488bd62e7c0&#45;&gt;node0x6488bd5fe6f0</title>
<path fill="none" stroke="#6b7280" d="M2391.65,-179.61C2375.32,-165.66 2352.3,-145.99 2334.7,-130.96"/>
<polygon fill="#6b7280" stroke="#6b7280" points="2328.96,-126.05 2336.33,-128.2 2331.62,-128.32 2334.28,-130.6 2334.28,-130.6 2334.28,-130.6 2331.62,-128.32 2332.23,-132.99 2328.96,-126.05 2328.96,-126.05"/>
</g>
<!-- node0x6488bd5fe760 -->
<g id="node59" class="node">
<title>node0x6488bd5fe760</title>
<path fill="#fff9db" stroke="#b7791f" stroke-width="1.2" d="M2432.5,-126C2432.5,-126 2391.5,-126 2391.5,-126 2385.5,-126 2379.5,-120 2379.5,-114 2379.5,-114 2379.5,-102 2379.5,-102 2379.5,-96 2385.5,-90 2391.5,-90 2391.5,-90 2432.5,-90 2432.5,-90 2438.5,-90 2444.5,-96 2444.5,-102 2444.5,-102 2444.5,-114 2444.5,-114 2444.5,-120 2438.5,-126 2432.5,-126"/>
<text text-anchor="middle" x="2412" y="-111.2" font-family="Helvetica,sans-Serif" font-size="11.00" fill="#111111">Primitivo</text>
<text text-anchor="middle" x="2412" y="-99.2" font-family="Helvetica,sans-Serif" font-size="11.00" fill="#111111">(4)</text>
</g>
<!-- node0x6488bd62e7c0&#45;&gt;node0x6488bd5fe760 -->
<g id="edge58" class="edge">
<title>node0x6488bd62e7c0&#45;&gt;node0x6488bd5fe760</title>
<path fill="none" stroke="#6b7280" d="M2412,-179.61C2412,-166.39 2412,-148.03 2412,-133.35"/>
<polygon fill="#6b7280" stroke="#6b7280" points="2412,-126.05 2415.15,-133.05 2412,-129.55 2412,-133.05 2412,-133.05 2412,-133.05 2412,-129.55 2408.85,-133.05 2412,-126.05 2412,-126.05"/>
</g>
<!-- node0x6488bd5e8bd0 -->
<g id="node61" class="node">
<title>node0x6488bd5e8bd0</title>
<path fill="#ffffff" stroke="#a0aec0" d="M2610,-306C2610,-306 2524,-306 2524,-306 2518,-306 2512,-300 2512,-294 2512,-294 2512,-282 2512,-282 2512,-276 2518,-270 2524,-270 2524,-270 2610,-270 2610,-270 2616,-270 2622,-276 2622,-282 2622,-282 2622,-294 2622,-294 2622,-300 2616,-306 2610,-306"/>
<text text-anchor="middle" x="2567" y="-285.2" font-family="Helvetica,sans-Serif" font-size="11.00" fill="#111111">ListaExpresiones</text>
</g>
<!-- node0x6488bd5e8c30&#45;&gt;node0x6488bd5e8bd0 -->
<g id="edge60" class="edge">
<title>node0x6488bd5e8c30&#45;&gt;node0x6488bd5e8bd0</title>
<path fill="none" stroke="#6b7280" d="M2528.48,-359.61C2535.83,-346.15 2546.08,-327.36 2554.16,-312.54"/>
<polygon fill="#6b7280" stroke="#6b7280" points="2557.7,-306.05 2557.11,-313.7 2556.02,-309.12 2554.35,-312.2 2554.35,-312.2 2554.35,-312.2 2556.02,-309.12 2551.58,-310.69 2557.7,-306.05 2557.7,-306.05"/>
</g>
<!-- node0x6488bd635a30 -->
<g id="node62" class="node">
<title>node0x6488bd635a30</title>
<path fill="#ffffff" stroke="#a0aec0" d="M2585,-216C2585,-216 2549,-216 2549,-216 2543,-216 2537,-210 2537,-204 2537,-204 2537,-192 2537,-192 2537,-186 2543,-180 2549,-180 2549,-180 2585,-180 2585,-180 2591,-180 2597,-186 2597,-192 2597,-192 2597,-204 2597,-204 2597,-210 2591,-216 2585,-216"/>
<text text-anchor="middle" x="2567" y="-195.2" font-family="Helvetica,sans-Serif" font-size="11.00" fill="#111111">Division</text>
</g>
<!-- node0x6488bd5e8bd0&#45;&gt;node0x6488bd635a30 -->
<g id="edge61" class="edge">
<title>node0x6488bd5e8bd0&#45;&gt;node0x6488bd635a30</title>
<path fill="none" stroke="#6b7280" d="M2567,-269.61C2567,-256.39 2567,-238.03 2567,-223.35"/>
<polygon fill="#6b7280" stroke="#6b7280" points="2567,-216.05 2570.15,-223.05 2567,-219.55 2567,-223.05 2567,-223.05 2567,-223.05 2567,-219.55 2563.85,-223.05 2567,-216.05 2567,-216.05"/>
</g>
<!-- node0x6488bd52d6c0 -->
<g id="node63" class="node">
<title>node0x6488bd52d6c0</title>
<path fill="#e8f8f0" stroke="#2f855a" d="M2530,-126C2530,-126 2500,-126 2500,-126 2494,-126 2488,-120 2488,-114 2488,-114 2488,-102 2488,-102 2488,-96 2494,-90 2500,-90 2500,-90 2530,-90 2530,-90 2536,-90 2542,-96 2542,-102 2542,-102 2542,-114 2542,-114 2542,-120 2536,-126 2530,-126"/>
<text text-anchor="middle" x="2515" y="-111.2" font-family="Helvetica,sans-Serif" font-size="11.00" fill="#111111">ID</text>
<text text-anchor="middle" x="2515" y="-99.2" font-family="Helvetica,sans-Serif" font-size="11.00" fill="#111111">(base)</text>
</g>
<!-- node0x6488bd635a30&#45;&gt;node0x6488bd52d6c0 -->
<g id="edge62" class="edge">
<title>node0x6488bd635a30&#45;&gt;node0x6488bd52d6c0</title>
<path fill="none" stroke="#6b7280" d="M2556.73,-179.61C2548.7,-166.03 2537.46,-147.02 2528.68,-132.14"/>
<polygon fill="#6b7280" stroke="#6b7280" points="2525.08,-126.05 2531.35,-130.47 2526.86,-129.06 2528.64,-132.08 2528.64,-132.08 2528.64,-132.08 2526.86,-129.06 2525.92,-133.68 2525.08,-126.05 2525.08,-126.05"/>
</g>
<!-- node0x6488bd52d730 -->
<g id="node64" class="node">
<title>node0x6488bd52d730</title>
<path fill="#fff9db" stroke="#b7791f" stroke-width="1.2" d="M2638.5,-126C2638.5,-126 2597.5,-126 2597.5,-126 2591.5,-126 2585.5,-120 2585.5,-114 2585.5,-114 2585.5,-102 2585.5,-102 2585.5,-96 2591.5,-90 2597.5,-90 2597.5,-90 2638.5,-90 2638.5,-90 2644.5,-90 2650.5,-96 2650.5,-102 2650.5,-102 2650.5,-114 2650.5,-114 2650.5,-120 2644.5,-126 2638.5,-126"/>
<text text-anchor="middle" x="2618" y="-111.2" font-family="Helvetica,sans-Serif" font-size="11.00" fill="#111111">Primitivo</text>
<text text-anchor="middle" x="2618" y="-99.2" font-family="Helvetica,sans-Serif" font-size="11.00" fill="#111111">(2)</text>
</g>
<!-- node0x6488bd635a30&#45;&gt;node0x6488bd52d730 -->
<g id="edge63" class="edge">
<title>node0x6488bd635a30&#45;&gt;node0x6488bd52d730</title>
<path fill="none" stroke="#6b7280" d="M2577.08,-179.61C2584.95,-166.03 2595.97,-147.02 2604.59,-132.14"/>
<polygon fill="#6b7280" stroke="#6b7280" points="2608.12,-126.05 2607.33,-133.69 2606.36,-129.08 2604.61,-132.11 2604.61,-132.11 2604.61,-132.11 2606.36,-129.08 2601.88,-130.53 2608.12,-126.05 2608.12,-126.05"/>
</g>
<!-- node0x6488bd5f4f80 -->
<g id="node66" class="node">
<title>node0x6488bd5f4f80</title>
<path fill="#ffffff" stroke="#a0aec0" d="M2763,-306C2763,-306 2677,-306 2677,-306 2671,-306 2665,-300 2665,-294 2665,-294 2665,-282 2665,-282 2665,-276 2671,-270 2677,-270 2677,-270 2763,-270 2763,-270 2769,-270 2775,-276 2775,-282 2775,-282 2775,-294 2775,-294 2775,-300 2769,-306 2763,-306"/>
<text text-anchor="middle" x="2720" y="-285.2" font-family="Helvetica,sans-Serif" font-size="11.00" fill="#111111">ListaExpresiones</text>
</g>
<!-- node0x6488bd5f4fc0&#45;&gt;node0x6488bd5f4f80 -->
<g id="edge65" class="edge">
<title>node0x6488bd5f4fc0&#45;&gt;node0x6488bd5f4f80</title>
<path fill="none" stroke="#6b7280" d="M2679.08,-359.61C2686.95,-346.03 2697.97,-327.02 2706.59,-312.14"/>
<polygon fill="#6b7280" stroke="#6b7280" points="2710.12,-306.05 2709.33,-313.69 2708.36,-309.08 2706.61,-312.11 2706.61,-312.11 2706.61,-312.11 2708.36,-309.08 2703.88,-310.53 2710.12,-306.05 2710.12,-306.05"/>
</g>
<!-- node0x6488bd610f50 -->
<g id="node67" class="node">
<title>node0x6488bd610f50</title>
<path fill="#ffffff" stroke="#a0aec0" d="M2737,-216C2737,-216 2705,-216 2705,-216 2699,-216 2693,-210 2693,-204 2693,-204 2693,-192 2693,-192 2693,-186 2699,-180 2705,-180 2705,-180 2737,-180 2737,-180 2743,-180 2749,-186 2749,-192 2749,-192 2749,-204 2749,-204 2749,-210 2743,-216 2737,-216"/>
<text text-anchor="middle" x="2721" y="-195.2" font-family="Helvetica,sans-Serif" font-size="11.00" fill="#111111">Modulo</text>
</g>
<!-- node0x6488bd5f4f80&#45;&gt;node0x6488bd610f50 -->
<g id="edge66" class="edge">
<title>node0x6488bd5f4f80&#45;&gt;node0x6488bd610f50</title>
<path fill="none" stroke="#6b7280" d="M2720.2,-269.61C2720.35,-256.39 2720.56,-238.03 2720.72,-223.35"/>
<polygon fill="#6b7280" stroke="#6b7280" points="2720.81,-216.05 2723.88,-223.09 2720.77,-219.55 2720.73,-223.05 2720.73,-223.05 2720.73,-223.05 2720.77,-219.55 2717.58,-223.01 2720.81,-216.05 2720.81,-216.05"/>
</g>
<!-- node0x6488bd401cd0 -->
<g id="node68" class="node">
<title>node0x6488bd401cd0</title>
<path fill="#e8f8f0" stroke="#2f855a" d="M2736,-126C2736,-126 2706,-126 2706,-126 2700,-126 2694,-120 2694,-114 2694,-114 2694,-102 2694,-102 2694,-96 2700,-90 2706,-90 2706,-90 2736,-90 2736,-90 2742,-90 2748,-96 2748,-102 2748,-102 2748,-114 2748,-114 2748,-120 2742,-126 2736,-126"/>
<text text-anchor="middle" x="2721" y="-111.2" font-family="Helvetica,sans-Serif" font-size="11.00" fill="#111111">ID</text>
<text text-anchor="middle" x="2721" y="-99.2" font-family="Helvetica,sans-Serif" font-size="11.00" fill="#111111">(base)</text>
</g>
<!-- node0x6488bd610f50&#45;&gt;node0x6488bd401cd0 -->
<g id="edge67" class="edge">
<title>node0x6488bd610f50&#45;&gt;node0x6488bd401cd0</title>
<path fill="none" stroke="#6b7280" d="M2721,-179.61C2721,-166.39 2721,-148.03 2721,-133.35"/>
<polygon fill="#6b7280" stroke="#6b7280" points="2721,-126.05 2724.15,-133.05 2721,-129.55 2721,-133.05 2721,-133.05 2721,-133.05 2721,-129.55 2717.85,-133.05 2721,-126.05 2721,-126.05"/>
</g>
<!-- node0x6488bd630120 -->
<g id="node69" class="node">
<title>node0x6488bd630120</title>
<path fill="#fff9db" stroke="#b7791f" stroke-width="1.2" d="M2844.5,-126C2844.5,-126 2803.5,-126 2803.5,-126 2797.5,-126 2791.5,-120 2791.5,-114 2791.5,-114 2791.5,-102 2791.5,-102 2791.5,-96 2797.5,-90 2803.5,-90 2803.5,-90 2844.5,-90 2844.5,-90 2850.5,-90 2856.5,-96 2856.5,-102 2856.5,-102 2856.5,-114 2856.5,-114 2856.5,-120 2850.5,-126 2844.5,-126"/>
<text text-anchor="middle" x="2824" y="-111.2" font-family="Helvetica,sans-Serif" font-size="11.00" fill="#111111">Primitivo</text>
<text text-anchor="middle" x="2824" y="-99.2" font-family="Helvetica,sans-Serif" font-size="11.00" fill="#111111">(3)</text>
</g>
<!-- node0x6488bd610f50&#45;&gt;node0x6488bd630120 -->
<g id="edge68" class="edge">
<title>node0x6488bd610f50&#45;&gt;node0x6488bd630120</title>
<path fill="none" stroke="#6b7280" d="M2741.35,-179.61C2757.68,-165.66 2780.7,-145.99 2798.3,-130.96"/>
<polygon fill="#6b7280" stroke="#6b7280" points="2804.04,-126.05 2800.77,-132.99 2801.38,-128.32 2798.72,-130.6 2798.72,-130.6 2798.72,-130.6 2801.38,-128.32 2796.67,-128.2 2804.04,-126.05 2804.04,-126.05"/>
</g>
<!-- node0x6488bd5f5040 -->
<g id="node71" class="node">
<title>node0x6488bd5f5040</title>
<path fill="#ffffff" stroke="#a0aec0" d="M2916,-306C2916,-306 2830,-306 2830,-306 2824,-306 2818,-300 2818,-294 2818,-294 2818,-282 2818,-282 2818,-276 2824,-270 2830,-270 2830,-270 2916,-270 2916,-270 2922,-270 2928,-276 2928,-282 2928,-282 2928,-294 2928,-294 2928,-300 2922,-306 2916,-306"/>
<text text-anchor="middle" x="2873" y="-285.2" font-family="Helvetica,sans-Serif" font-size="11.00" fill="#111111">ListaExpresiones</text>
</g>
<!-- node0x6488bd23a6c0&#45;&gt;node0x6488bd5f5040 -->
<g id="edge70" class="edge">
<title>node0x6488bd23a6c0&#45;&gt;node0x6488bd5f5040</title>
<path fill="none" stroke="#6b7280" d="M2831.27,-359.61C2839.3,-346.03 2850.54,-327.02 2859.32,-312.14"/>
<polygon fill="#6b7280" stroke="#6b7280" points="2862.92,-306.05 2862.08,-313.68 2861.14,-309.06 2859.36,-312.08 2859.36,-312.08 2859.36,-312.08 2861.14,-309.06 2856.65,-310.47 2862.92,-306.05 2862.92,-306.05"/>
</g>
<!-- node0x6488bd61d4a0 -->
<g id="node72" class="node">
<title>node0x6488bd61d4a0</title>
<path fill="#ffffff" stroke="#a0aec0" d="M2942,-216C2942,-216 2912,-216 2912,-216 2906,-216 2900,-210 2900,-204 2900,-204 2900,-192 2900,-192 2900,-186 2906,-180 2912,-180 2912,-180 2942,-180 2942,-180 2948,-180 2954,-186 2954,-192 2954,-192 2954,-204 2954,-204 2954,-210 2948,-216 2942,-216"/>
<text text-anchor="middle" x="2927" y="-195.2" font-family="Helvetica,sans-Serif" font-size="11.00" fill="#111111">Suma</text>
</g>
<!-- node0x6488bd5f5040&#45;&gt;node0x6488bd61d4a0 -->
<g id="edge71" class="edge">
<title>node0x6488bd5f5040&#45;&gt;node0x6488bd61d4a0</title>
<path fill="none" stroke="#6b7280" d="M2883.67,-269.61C2892.01,-256.03 2903.67,-237.02 2912.8,-222.14"/>
<polygon fill="#6b7280" stroke="#6b7280" points="2916.54,-216.05 2915.56,-223.66 2914.71,-219.03 2912.88,-222.02 2912.88,-222.02 2912.88,-222.02 2914.71,-219.03 2910.19,-220.37 2916.54,-216.05 2916.54,-216.05"/>
</g>
<!-- node0x6488bd2c2370 -->
<g id="node73" class="node">
<title>node0x6488bd2c2370</title>
<path fill="#e8f8f0" stroke="#2f855a" d="M2942,-126C2942,-126 2912,-126 2912,-126 2906,-126 2900,-120 2900,-114 2900,-114 2900,-102 2900,-102 2900,-96 2906,-90 2912,-90 2912,-90 2942,-90 2942,-90 2948,-90 2954,-96 2954,-102 2954,-102 2954,-114 2954,-114 2954,-120 2948,-126 2942,-126"/>
<text text-anchor="middle" x="2927" y="-111.2" font-family="Helvetica,sans-Serif" font-size="11.00" fill="#111111">ID</text>
<text text-anchor="middle" x="2927" y="-99.2" font-family="Helvetica,sans-Serif" font-size="11.00" fill="#111111">(base)</text>
</g>
<!-- node0x6488bd61d4a0&#45;&gt;node0x6488bd2c2370 -->
<g id="edge72" class="edge">
<title>node0x6488bd61d4a0&#45;&gt;node0x6488bd2c2370</title>
<path fill="none" stroke="#6b7280" d="M2927,-179.61C2927,-166.39 2927,-148.03 2927,-133.35"/>
<polygon fill="#6b7280" stroke="#6b7280" points="2927,-126.05 2930.15,-133.05 2927,-129.55 2927,-133.05 2927,-133.05 2927,-133.05 2927,-129.55 2923.85,-133.05 2927,-126.05 2927,-126.05"/>
</g>
<!-- node0x6488bd503b60 -->
<g id="node74" class="node">
<title>node0x6488bd503b60</title>
<path fill="#ffffff" stroke="#a0aec0" d="M3077,-126C3077,-126 3009,-126 3009,-126 3003,-126 2997,-120 2997,-114 2997,-114 2997,-102 2997,-102 2997,-96 3003,-90 3009,-90 3009,-90 3077,-90 3077,-90 3083,-90 3089,-96 3089,-102 3089,-102 3089,-114 3089,-114 3089,-120 3083,-126 3077,-126"/>
<text text-anchor="middle" x="3043" y="-105.2" font-family="Helvetica,sans-Serif" font-size="11.00" fill="#111111">Multiplicacion</text>
</g>
<!-- node0x6488bd61d4a0&#45;&gt;node0x6488bd503b60 -->
<g id="edge73" class="edge">
<title>node0x6488bd61d4a0&#45;&gt;node0x6488bd503b60</title>
<path fill="none" stroke="#6b7280" d="M2949.64,-179.82C2968.24,-165.71 2994.7,-145.64 3014.7,-130.47"/>
<polygon fill="#6b7280" stroke="#6b7280" points="3020.42,-126.13 3016.74,-132.87 3017.63,-128.25 3014.84,-130.36 3014.84,-130.36 3014.84,-130.36 3017.63,-128.25 3012.94,-127.85 3020.42,-126.13 3020.42,-126.13"/>
</g>
<!-- node0x6488bd2c23e0 -->
<g id="node75" class="node">
<title>node0x6488bd2c23e0</title>
<path fill="#fff9db" stroke="#b7791f" stroke-width="1.2" d="M2957.5,-36C2957.5,-36 2916.5,-36 2916.5,-36 2910.5,-36 2904.5,-30 2904.5,-24 2904.5,-24 2904.5,-12 2904.5,-12 2904.5,-6 2910.5,0 2916.5,0 2916.5,0 2957.5,0 2957.5,0 2963.5,0 2969.5,-6 2969.5,-12 2969.5,-12 2969.5,-24 2969.5,-24 2969.5,-30 2963.5,-36 2957.5,-36"/>
<text text-anchor="middle" x="2937" y="-21.2" font-family="Helvetica,sans-Serif" font-size="11.00" fill="#111111">Primitivo</text>
<text text-anchor="middle" x="2937" y="-9.2" font-family="Helvetica,sans-Serif" font-size="11.00" fill="#111111">(2)</text>
</g>
<!-- node0x6488bd503b60&#45;&gt;node0x6488bd2c23e0 -->
<g id="edge74" class="edge">
<title>node0x6488bd503b60&#45;&gt;node0x6488bd2c23e0</title>
<path fill="none" stroke="#6b7280" d="M3022.31,-89.82C3005.38,-75.77 2981.35,-55.82 2963.1,-40.67"/>
<polygon fill="#6b7280" stroke="#6b7280" points="2957.64,-36.13 2965.04,-38.18 2960.33,-38.37 2963.02,-40.6 2963.02,-40.6 2963.02,-40.6 2960.33,-38.37 2961.01,-43.03 2957.64,-36.13 2957.64,-36.13"/>
</g>
<!-- node0x6488bd23a610 -->
<g id="node76" class="node">
<title>node0x6488bd23a610</title>
<path fill="#fff9db" stroke="#b7791f" stroke-width="1.2" d="M3065.5,-36C3065.5,-36 3024.5,-36 3024.5,-36 3018.5,-36 3012.5,-30 3012.5,-24 3012.5,-24 3012.5,-12 3012.5,-12 3012.5,-6 3018.5,0 3024.5,0 3024.5,0 3065.5,0 3065.5,0 3071.5,0 3077.5,-6 3077.5,-12 3077.5,-12 3077.5,-24 3077.5,-24 3077.5,-30 3071.5,-36 3065.5,-36"/>
<text text-anchor="middle" x="3045" y="-21.2" font-family="Helvetica,sans-Serif" font-size="11.00" fill="#111111">Primitivo</text>
<text text-anchor="middle" x="3045" y="-9.2" font-family="Helvetica,sans-Serif" font-size="11.00" fill="#111111">(5)</text>
</g>
<!-- node0x6488bd503b60&#45;&gt;node0x6488bd23a610 -->
<g id="edge75" class="edge">
<title>node0x6488bd503b60&#45;&gt;node0x6488bd23a610</title>
<path fill="none" stroke="#6b7280" d="M3043.4,-89.61C3043.7,-76.39 3044.11,-58.03 3044.45,-43.35"/>
<polygon fill="#6b7280" stroke="#6b7280" points="3044.61,-36.05 3047.6,-43.12 3044.53,-39.55 3044.45,-43.05 3044.45,-43.05 3044.45,-43.05 3044.53,-39.55 3041.3,-42.98 3044.61,-36.05 3044.61,-36.05"/>
</g>
<!-- node0x6488bd61f510 -->
<g id="node78" class="node">
<title>node0x6488bd61f510</title>
<path fill="#ffffff" stroke="#a0aec0" d="M3069,-306C3069,-306 2983,-306 2983,-306 2977,-306 2971,-300 2971,-294 2971,-294 2971,-282 2971,-282 2971,-276 2977,-270 2983,-270 2983,-270 3069,-270 3069,-270 3075,-270 3081,-276 3081,-282 3081,-282 3081,-294 3081,-294 3081,-300 3075,-306 3069,-306"/>
<text text-anchor="middle" x="3026" y="-285.2" font-family="Helvetica,sans-Serif" font-size="11.00" fill="#111111">ListaExpresiones</text>
</g>
<!-- node0x6488bd5f0bd0&#45;&gt;node0x6488bd61f510 -->
<g id="edge77" class="edge">
<title>node0x6488bd5f0bd0&#45;&gt;node0x6488bd61f510</title>
<path fill="none" stroke="#6b7280" d="M2983.47,-359.61C2991.65,-346.03 3003.1,-327.02 3012.06,-312.14"/>
<polygon fill="#6b7280" stroke="#6b7280" points="3015.73,-306.05 3014.82,-313.67 3013.93,-309.05 3012.12,-312.05 3012.12,-312.05 3012.12,-312.05 3013.93,-309.05 3009.42,-310.42 3015.73,-306.05 3015.73,-306.05"/>
</g>
<!-- node0x6488bd61f4b0 -->
<g id="node79" class="node">
<title>node0x6488bd61f4b0</title>
<path fill="#ffffff" stroke="#a0aec0" d="M3090,-216C3090,-216 3010,-216 3010,-216 3004,-216 2998,-210 2998,-204 2998,-204 2998,-192 2998,-192 2998,-186 3004,-180 3010,-180 3010,-180 3090,-180 3090,-180 3096,-180 3102,-186 3102,-192 3102,-192 3102,-204 3102,-204 3102,-210 3096,-216 3090,-216"/>
<text text-anchor="middle" x="3050" y="-195.2" font-family="Helvetica,sans-Serif" font-size="11.00" fill="#111111">NegacionUnaria</text>
</g>
<!-- node0x6488bd61f510&#45;&gt;node0x6488bd61f4b0 -->
<g id="edge78" class="edge">
<title>node0x6488bd61f510&#45;&gt;node0x6488bd61f4b0</title>
<path fill="none" stroke="#6b7280" d="M3030.74,-269.61C3034.38,-256.27 3039.45,-237.69 3043.47,-222.94"/>
<polygon fill="#6b7280" stroke="#6b7280" points="3045.35,-216.05 3046.55,-223.63 3044.43,-219.43 3043.51,-222.8 3043.51,-222.8 3043.51,-222.8 3044.43,-219.43 3040.47,-221.97 3045.35,-216.05 3045.35,-216.05"/>
</g>
<!-- node0x6488bd61f430 -->
<g id="node80" class="node">
<title>node0x6488bd61f430</title>
<path fill="#ffffff" stroke="#a0aec0" d="M3174,-126C3174,-126 3144,-126 3144,-126 3138,-126 3132,-120 3132,-114 3132,-114 3132,-102 3132,-102 3132,-96 3138,-90 3144,-90 3144,-90 3174,-90 3174,-90 3180,-90 3186,-96 3186,-102 3186,-102 3186,-114 3186,-114 3186,-120 3180,-126 3174,-126"/>
<text text-anchor="middle" x="3159" y="-105.2" font-family="Helvetica,sans-Serif" font-size="11.00" fill="#111111">Suma</text>
</g>
<!-- node0x6488bd61f4b0&#45;&gt;node0x6488bd61f430 -->
<g id="edge79" class="edge">
<title>node0x6488bd61f4b0&#45;&gt;node0x6488bd61f430</title>
<path fill="none" stroke="#6b7280" d="M3071.28,-179.82C3088.68,-165.77 3113.4,-145.82 3132.16,-130.67"/>
<polygon fill="#6b7280" stroke="#6b7280" points="3137.78,-126.13 3134.31,-132.98 3135.06,-128.33 3132.33,-130.53 3132.33,-130.53 3132.33,-130.53 3135.06,-128.33 3130.35,-128.08 3137.78,-126.13 3137.78,-126.13"/>
</g>
<!-- node0x6488bd608810 -->
<g id="node81" class="node">
<title>node0x6488bd608810</title>
<path fill="#e8f8f0" stroke="#2f855a" d="M3180,-36C3180,-36 3136,-36 3136,-36 3130,-36 3124,-30 3124,-24 3124,-24 3124,-12 3124,-12 3124,-6 3130,0 3136,0 3136,0 3180,0 3180,0 3186,0 3192,-6 3192,-12 3192,-12 3192,-24 3192,-24 3192,-30 3186,-36 3180,-36"/>
<text text-anchor="middle" x="3158" y="-21.2" font-family="Helvetica,sans-Serif" font-size="11.00" fill="#111111">ID</text>
<text text-anchor="middle" x="3158" y="-9.2" font-family="Helvetica,sans-Serif" font-size="11.00" fill="#111111">(flotante)</text>
</g>
<!-- node0x6488bd61f430&#45;&gt;node0x6488bd608810 -->
<g id="edge80" class="edge">
<title>node0x6488bd61f430&#45;&gt;node0x6488bd608810</title>
<path fill="none" stroke="#6b7280" d="M3158.8,-89.61C3158.65,-76.39 3158.44,-58.03 3158.28,-43.35"/>
<polygon fill="#6b7280" stroke="#6b7280" points="3158.19,-36.05 3161.42,-43.01 3158.23,-39.55 3158.27,-43.05 3158.27,-43.05 3158.27,-43.05 3158.23,-39.55 3155.12,-43.09 3158.19,-36.05 3158.19,-36.05"/>
</g>
<!-- node0x6488bd401c50 -->
<g id="node82" class="node">
<title>node0x6488bd401c50</title>
<path fill="#fff9db" stroke="#b7791f" stroke-width="1.2" d="M3288.5,-36C3288.5,-36 3247.5,-36 3247.5,-36 3241.5,-36 3235.5,-30 3235.5,-24 3235.5,-24 3235.5,-12 3235.5,-12 3235.5,-6 3241.5,0 3247.5,0 3247.5,0 3288.5,0 3288.5,0 3294.5,0 3300.5,-6 3300.5,-12 3300.5,-12 3300.5,-24 3300.5,-24 3300.5,-30 3294.5,-36 3288.5,-36"/>
<text text-anchor="middle" x="3268" y="-21.2" font-family="Helvetica,sans-Serif" font-size="11.00" fill="#111111">Primitivo</text>
<text text-anchor="middle" x="3268" y="-9.2" font-family="Helvetica,sans-Serif" font-size="11.00" fill="#111111">(0.5f)</text>
</g>
<!-- node0x6488bd61f430&#45;&gt;node0x6488bd401c50 -->
<g id="edge81" class="edge">
<title>node0x6488bd61f430&#45;&gt;node0x6488bd401c50</title>
<path fill="none" stroke="#6b7280" d="M3180.28,-89.82C3197.68,-75.77 3222.4,-55.82 3241.16,-40.67"/>
<polygon fill="#6b7280" stroke="#6b7280" points="3246.78,-36.13 3243.31,-42.98 3244.06,-38.33 3241.33,-40.53 3241.33,-40.53 3241.33,-40.53 3244.06,-38.33 3239.35,-38.08 3246.78,-36.13 3246.78,-36.13"/>
</g>
<!-- node0x6488bd5f0c80 -->
<g id="node84" class="node">
<title>node0x6488bd5f0c80</title>
<path fill="#ffffff" stroke="#a0aec0" d="M3222,-306C3222,-306 3136,-306 3136,-306 3130,-306 3124,-300 3124,-294 3124,-294 3124,-282 3124,-282 3124,-276 3130,-270 3136,-270 3136,-270 3222,-270 3222,-270 3228,-270 3234,-276 3234,-282 3234,-282 3234,-294 3234,-294 3234,-300 3228,-306 3222,-306"/>
<text text-anchor="middle" x="3179" y="-285.2" font-family="Helvetica,sans-Serif" font-size="11.00" fill="#111111">ListaExpresiones</text>
</g>
<!-- node0x6488bd544be0&#45;&gt;node0x6488bd5f0c80 -->
<g id="edge83" class="edge">
<title>node0x6488bd544be0&#45;&gt;node0x6488bd5f0c80</title>
<path fill="none" stroke="#6b7280" d="M3136.47,-359.61C3144.65,-346.03 3156.1,-327.02 3165.06,-312.14"/>
<polygon fill="#6b7280" stroke="#6b7280" points="3168.73,-306.05 3167.82,-313.67 3166.93,-309.05 3165.12,-312.05 3165.12,-312.05 3165.12,-312.05 3166.93,-309.05 3162.42,-310.42 3168.73,-306.05 3168.73,-306.05"/>
</g>
<!-- node0x6488bd5f0c30 -->
<g id="node85" class="node">
<title>node0x6488bd5f0c30</title>
<path fill="#fff9db" stroke="#b7791f" stroke-width="1.2" d="M3199.5,-216C3199.5,-216 3158.5,-216 3158.5,-216 3152.5,-216 3146.5,-210 3146.5,-204 3146.5,-204 3146.5,-192 3146.5,-192 3146.5,-186 3152.5,-180 3158.5,-180 3158.5,-180 3199.5,-180 3199.5,-180 3205.5,-180 3211.5,-186 3211.5,-192 3211.5,-192 3211.5,-204 3211.5,-204 3211.5,-210 3205.5,-216 3199.5,-216"/>
<text text-anchor="middle" x="3179" y="-201.2" font-family="Helvetica,sans-Serif" font-size="11.00" fill="#111111">Primitivo</text>
<text text-anchor="middle" x="3179" y="-189.2" font-family="Helvetica,sans-Serif" font-size="11.00" fill="#111111">()</text>
</g>
<!-- node0x6488bd5f0c80&#45;&gt;node0x6488bd5f0c30 -->
<g id="edge84" class="edge">
<title>node0x6488bd5f0c80&#45;&gt;node0x6488bd5f0c30</title>
<path fill="none" stroke="#6b7280" d="M3179,-269.61C3179,-256.39 3179,-238.03 3179,-223.35"/>
<polygon fill="#6b7280" stroke="#6b7280" points="3179,-216.05 3182.15,-223.05 3179,-219.55 3179,-223.05 3179,-223.05 3179,-223.05 3179,-219.55 3175.85,-223.05 3179,-216.05 3179,-216.05"/>
</g>
</g>
</svg>
